<?xml version="1.0" encoding="utf-8"?>
<!-- Generator: Adobe Illustrator 19.2.1, SVG Export Plug-In . SVG Version: 6.00 Build 0)  -->
<svg version="1.1" id="Layer_1" xmlns="http://www.w3.org/2000/svg" xmlns:xlink="http://www.w3.org/1999/xlink" x="0px" y="0px"
	 viewBox="0 0 498 200" style="enable-background:new 0 0 498 200;" xml:space="preserve">
<style type="text/css">
	.st0{fill:#CCCCCC;}
</style>
<g id="Слой_x0020_1">
	<g>
		<g>
			<path class="st0" d="M321,46c0,15,0,30,0,45c0,14,0,28,0,42c0,1,0,1-1,1c-16,0-31,0-46,0c-4,0-7-1-9-4c-2-2-3-3-3-6
				c0-12,0-25,0-37c0-7,5-11,10-12c1,0,1,0,2,0c12,0,24,0,36,0c1,0,1,0,1-1c0-9,0-19,0-27c0-1,0-1,0-1h1h1C315,46,318,46,321,46z
				 M291,85c-6,0-12,0-18,0c-1,0-1,1-1,1c0,12,0,25,0,37c0,1,0,2,1,2c12,0,25,0,37,0c1,0,2,0,2-1c0-12,0-25,0-37c0-1-1-1-1-1
				C304,85,298,85,291,85z"/>
			<path class="st0" d="M0,84v-1c2-5,6-8,11-8c12,0,24,0,37,0c6,0,11,6,11,12c0,5,0,11,0,17s-6,10-10,10c-6,0-11,0-17,0
				c-7,0-14,0-21,0c-1,0-2,0-2,1c0,3,0,5,0,7c0,1,0,2,2,2c12,0,24,0,37,0c1,0,1,0,1,1c0,3,0,5,0,8c0,0,0,1-1,1c-13,0-26,0-39,0
				c-4,0-8-3-9-7c0-1,0-1,0-1C0,112,0,98,0,84z M29,104c6,0,12,0,18,0c1,0,2,0,2,0c0-6,0-12,0-18c0-1,0-1-1-1c-12,0-25,0-37,0
				c-1,0-1,0-1,1c0,6,0,12,0,18c0,0,0,1,1,1C17,104,23,104,29,104z"/>
			<path class="st0" d="M468,46c0,10,0,18,0,28c0,1,1,1,2,1c9,0,18,0,27,0c1,0,1,1,1,2c0,2,0,4,0,7c0,1,0,2-1,2c-9,0-18,0-27,0
				c-1,0-2,0-2,1c0,16,0,31,0,47c0,1,0,1-1,1c-2,0-5,0-7,0c-1,0-1,0-1-1c0-5,0-10,0-15c0-24,0-48,0-72c0,0,0,0,0-1l0,0c1,1,1,0,1,0
				C463,46,466,46,468,46z"/>
			<path class="st0" d="M190,115c0,9,0,19,0,29c0,3-1,6-4,8c-1,1-3,2-6,2c-12,0-25,0-38,0c-1,0-1-1-1-1c0-2,0-5,0-8c0,0,0-1,1-1
				c12,0,25,0,37,0c1,0,1,0,1-1c0-3,0-5,0-7c0-1,0-1-1-1c-12,0-25,0-37,0c-5,0-9-4-10-8c-1-1-1-2-1-3c0-12,0-25,0-37c0-6,5-11,11-11
				c13,0,26,0,38,0c6,0,10,5,10,11C190,96,190,105,190,115z M180,104c0-6,0-12,0-18c0-1,0-1-1-1c-12,0-24,0-37,0c-1,0-1,0-1,1
				c0,12,0,25,0,37c0,1,0,2,1,2c12,0,25,0,37,0c1,0,1-1,1-2C180,117,180,111,180,104z"/>
			<path class="st0" d="M387,115c0,9,0,19,0,29c0,1-1,3-2,5c-1,3-4,5-7,5c-13,0-24,0-37,0c-1,0-1-1-1-1c0-2,0-5,0-8c0,0,0,0,1,0
				c12,0,23,0,34,0c1,0,1-1,1-2c0-2,0-5,0-7c0-1,0-1-1-1c-12,0-24,0-36,0c-5,0-8-3-9-8c0-1,0-2,0-3c0-12,0-25,0-37c0-3,1-5,1-7
				c2-3,4-5,8-5c13,0,25,0,38,0c4,0,8,3,9,8c0,1,0,2,0,4C387,96,387,105,387,115z M341,104c0,7,0,13,0,19c0,1,0,1,1,1
				c11,0,22,0,34,0c1,0,1,0,1-1c0-12,0-25,0-37c0-1,0-1-1-1c-12,0-23,0-34,0c-1,0-1,0-1,1C341,92,341,98,341,104z"/>
			<path class="st0" d="M424,114c-7,0-13,0-20,0c-1,0-1,1-1,2c0,2,0,4,0,7c0,1,0,2,1,2c12,0,24,0,36,0c2,0,2-1,2,2c0,2,0,4,0,7
				c0,1,0,1-1,1c-13,0-25,0-38,0c-6,0-10-5-10-11c0-12,0-24,0-36c0-7,6-12,11-12c13,0,25,0,38,0c6,0,10,5,10,10c0,6,0,13,0,20
				c0,5-4,9-9,9C436,114,430,114,424,114L424,114z M423,104c6,0,12,0,18,0c1,0,2,0,2,0c0-6,0-12,0-18c0-1,0-1-1-1c-13,0-25,0-38,0
				c-1,0-1,1-1,1c0,6,0,12,0,18c0,0,1,0,2,0C410,104,416,104,423,104z"/>
			<path class="st0" d="M246,124c-4,6-10,8-16,9c-3,1-5,1-8,1c-5,0-10,0-15,0c-3,0-6-2-8-4s-3-4-3-7c0-9,0-18,0-27c0-12,10-21,21-22
				c9,0,19,0,29,0c5,0,9,5,9,11c0,4,0,8,0,11c0,12,0,24,0,35c0,1,0,2-1,2c-3,0-5,0-8,0c-1,0-1-1-1-1C246,130,246,128,246,124z
				 M246,104c0-6,0-12,0-18c0-1,0-1-1-1c-10,0-19,0-28,0c-6,0-10,5-10,11c0,9,0,18,0,27c0,1,0,1,1,1c12,0,25,0,37,0c1,0,1,0,1-1
				C246,117,246,111,246,104z"/>
			<path class="st0" d="M65,109c0-7,0-15,0-22c0-6,5-12,12-12c9,0,18,0,27,0c11,0,20,9,20,21s0,25,0,37c0,1,0,1-1,1c-2,0-5,0-7,0
				c-1,0-1,0-1-1c0-12,0-25,0-37c0-3-1-6-4-8c-2-2-4-3-7-3c-9,0-18,0-28,0c-1,0-1,1-1,1c0,16,0,31,0,46c0,2,0,2-2,2s-4,0-7,0
				c-1,0-1,0-1-1C65,125,65,117,65,109z"/>
		</g>
	</g>
</g>
</svg>
