<?xml version="1.0" encoding="utf-8"?>
<!-- Generator: Adobe Illustrator 19.2.1, SVG Export Plug-In . SVG Version: 6.00 Build 0)  -->
<svg version="1.1" id="Layer_1" xmlns="http://www.w3.org/2000/svg" xmlns:xlink="http://www.w3.org/1999/xlink" x="0px" y="0px"
	 viewBox="0 0 666 200" style="enable-background:new 0 0 666 200;" xml:space="preserve">
<style type="text/css">
	.st0{fill:#CCCCCC;}
</style>
<g id="Слой_x0020_1">
	<g id="_1619045630720">
		<g>
			<path class="st0" d="M34,162.6c-10,0-20,0-31,0c-2,0-3-1-3-2c0-12,0-24,0-36c0-8,0-16,0-24c0-30,21-56,51-62c36-7,68,18,73,51
				c6,33-15,65-49,72c-4,0-7,1-11,1C54,162.6,44,162.6,34,162.6z M63,149.6c25,0,48-20,48-49c0-28-23-48-48-48c-26,0-49,21-49,48
				C14,129.6,38,149.6,63,149.6z"/>
			<path class="st0" d="M61,67.6c5,0,10,0,16,0c4,0,7,4,5,8c0,2-3,3-5,3c-5,0-10,0-15,0c-3,0-6,0-10,0c0,0-1,1-1,2c-4,6-8,12-12,19
				c0,0,0,1,0,2c4,6,8,13,12,19c0,0,1,1,2,1c7,0,13,1,20,1c2,0,4-1,5-3c3-6,7-13,11-19c1-2,2-3,4-4c3,0,4,1,5,2c1,2,1,5,1,6
				c-5,9-10,18-16,27c0,0-1,1-2,1c-6,0-12,0-18,0c-5,0-11,0-16,0c-2,0-2-1-3-1c-6-10-11-20-17-30c0-1-1-1,0-2c5-10,11-20,16-29
				c1-2,2-3,4-3C51,67.6,56,67.6,61,67.6L61,67.6z"/>
			<path class="st0" d="M63,112.6c-2,0-5,1-8,0c-1-1-2-4-4-7c-1-2-3-4-3-6s2-5,3-7s3-4,4-6c0,0,1-1,2-1c4,0,9,0,13,0c1,0,2,1,2,1
				c2,4,4,8,6,12c1,0,1,1,0,2c-2,3-4,7-6,11c-1,0-2,1-2,1C68,113.6,65,113.6,63,112.6L63,112.6z"/>
			<path class="st0" d="M666,155.6c-9,0-17,0-25,0c-2,0-2-1-3-2c-5-8-9-15-13-23c-3,2-5,4-5,8c1,5,0,10,0,15c0,2,0,3-3,3
				c-5,0-11,0-16,0c-2,0-3-1-3-3c0-29,0-59,0-89c0-2,1-3,4-3c5,0,10,0,15,0c2,0,3,1,3,4c0,13,0,27,0,41c0,1,0,1,0,2c2,0,2-1,2-2
				c6-6,10-13,15-19c2-2,3-3,5-3c7,0,15,0,22,0c1,2-1,2-1,3c-7,8-14,16-21,24c-3,3-3,4-1,7c7,11,15,23,22,34
				C664,152.6,665,154.6,666,155.6z"/>
			<path class="st0" d="M410,89.6c4-3,8-5,11-6c15-2,26,7,27,21c1,17,1,33,1,49c0,2-1,2-3,2c-5,0-11,0-17,0c-3,0-2-2-2-4
				c0-12,0-25,0-37c0-8-3-12-9-12c-5,0-8,4-8,12c0,12,0,25,0,37c0,3,0,4-3,4c-5,0-10,0-16,0c-2,0-3-1-3-3c0-30,0-59,0-89
				c0-2,1-3,3-3c6,0,11,0,17,0c2,0,2,1,2,3C410,72.6,410,80.6,410,89.6z"/>
			<path class="st0" d="M374,109.6c-2-14-13-24-27-26c-15-2-28,6-33,20c-3,8-4,16-2,24c2,18,10,27,27,28c11,2,23,0,32-8c1-2,2-2,0-4
				c-3-3-6-6-9-9c-1-2-3-2-5-1c-3,3-7,4-12,5c-6,0-11-4-12-9c-1-2,0-3,2-3c6,0,12,0,18,0s13,0,19,0c2,0,3,0,3-2
				C375,119.6,375,114.6,374,109.6z M351,112.6c-3,0-5,0-8,0s-5,0-8,0c-2,0-2,0-2-2c1-5,4-9,10-9c5,0,9,3,10,8
				C354,111.6,354,113.6,351,112.6z"/>
			<path class="st0" d="M154,108.6c0-15,0-29,0-44c0-2,1-3,3-3c6,0,11,0,16,0c3,0,4,1,4,4c0,22,0,43,0,65c0,4,0,4,5,4
				c10,0,20,0,31,0c2,0,4,1,4,4c-1,5,0,10,0,14c0,3-1,3-3,3c-19,0-38,0-58,0c-3,0-2-1-2-3C154,137.6,154,123.6,154,108.6z"/>
			<path class="st0" d="M269,129.6c0-7,0-15,0-22c0-3,0-4-3-3c-2,0-3-1-3-4s0-6,0-10c0-2,1-3,3-3c3,0,4-1,3-4c0-1,0-3,1-5
				c1-10,8-17,18-18c5,0,9,0,13,0c2,0,2,0,2,2c0,5,0,9,0,14c0,1-1,2-3,2c-1,0-4,0-5,0c-2,0-4,1-4,3c-1,5-1,6,4,6c8,0,8,0,8,7
				c0,3,1,6-1,9c-2,1-6,0-8,0c-3,0-3,1-3,4c0,14,0,30,0,44c0,3-1,4-4,4c-5,0-10,0-15,0c-2,0-3,0-3-2C269,145.6,269,137.6,269,129.6z
				"/>
			<path class="st0" d="M532,121.6c0-9,1-17,5-24c6-10,17-16,31-14c7,1,13,3,18,7c2,1,2,2,0,4c-4,3-7,7-11,11c-1,2-2,2-4,1
				c-8-6-15-3-17,7c0,5,0,11,1,15c2,8,9,11,16,6c2-1,3-1,4,0c3,4,7,7,10,10s2,4,0,5c-10,8-22,9-34,5s-17-14-18-25
				C532,126.6,532,123.6,532,121.6z"/>
			<path class="st0" d="M251,121.6c0,11,0,21,0,31c0,3-1,3-3,3c-6,0-11,0-16,0c-2,0-3,0-3-2c0-21,0-43,0-63c0-3,1-3,3-3
				c5,0,10,0,16,0c2,0,3,1,3,3C251,100.6,251,111.6,251,121.6z"/>
			<path class="st0" d="M240,80.6c-7,0-13-6-13-13s6-13,13-13s13,6,13,14C253,75.6,247,81.6,240,80.6z"/>
			<path class="st0" d="M520,106.6c-1-11-7-18-17-21c-9-2-17-2-27-1c-4,1-8,4-12,7c-2,1-2,2,0,4c4,3,7,6,10,10c1,1,2,2,4,0
				c4-3,8-3,13-3c5,1,7,4,7,8c0,2,0,3-2,2c-6,0-11,0-16,0c-11,1-19,8-20,17c-2,11,3,21,13,25c9,4,18,3,25-4c2,2-1,5,3,5
				c6,0,11,0,17,0c1,0,2,0,2-2C520,137.6,520,122.6,520,106.6z M491,138.6c-1,0-2,0-3,0c-3,0-5,0-7-2c-2-4,0-9,5-9c3-1,7,0,10,0
				c1,0,2,0,2,1C499,134.6,496,137.6,491,138.6z"/>
		</g>
	</g>
</g>
</svg>
