<?xml version="1.0" encoding="utf-8"?>
<!-- Generator: Adobe Illustrator 19.2.1, SVG Export Plug-In . SVG Version: 6.00 Build 0)  -->
<svg version="1.1" id="Layer_1" xmlns="http://www.w3.org/2000/svg" xmlns:xlink="http://www.w3.org/1999/xlink" x="0px" y="0px"
	 viewBox="0 0 698 200" style="enable-background:new 0 0 698 200;" xml:space="preserve">
<style type="text/css">
	.st0{fill:#CCCCCC;}
</style>
<g>
	<path class="st0" d="M18,85.5c6-5,11-7,18-8c16,0,30,11,34,28c5,20-7,40-27,44c-19,4-38-7-42-27c-1-4-1-8-1-12c0-19,0-39,0-58
		c0-4,1-5,4-4c4,0,7,0,11,0c3,0,3,0,3,3C18,62.5,18,74.5,18,85.5z M54,114.5c0-1,0-2,0-3c-1-8-7-15-14-17c-8-2-15,2-19,9s-4,14,0,21
		c6,11,20,12,27,4C52,124.5,54,119.5,54,114.5z"/>
	<path class="st0" d="M350,121.5c-8,0-16,0-24,0c-3,0-3,0-2,2c5,11,20,15,28,7c2-1,3-2,5-1c4,2,8,3,12,4c2,1,2,2,1,3
		c-7,10-17,14-29,14c-14,1-28-8-34-22c-5-15-1-31,10-42c11-9,28-12,41-5c14,8,19,24,18,38c0,2-1,2-3,2
		C365,121.5,357,121.5,350,121.5z M340,106.5c5,0,10,0,15,0c2,0,3,0,2-2c-3-7-9-11-17-11c-7,0-14,4-16,11c-1,1-1,2,1,2
		C330,106.5,336,106.5,340,106.5z"/>
	<path class="st0" d="M142,102.5c0,6,0,12,0,18c-1,19-14,31-33,30c-18-1-29-12-29-30c-1-12,0-25,0-38c0-2,0-3,2-3c4,0,8,1,12,0
		c3,0,4,1,4,4c0,12,0,24,0,36c0,10,7,16,17,13c6-1,10-6,10-13c0-12,0-25,0-37c0-2,0-3,3-3c4,0,8,0,12,0c2,0,3,0,3,2
		C142,88.5,142,95.5,142,102.5L142,102.5z"/>
	<path class="st0" d="M235,125.5c0-6,0-11,0-17c1-13,6-23,18-28s24-4,35,4c7,6,9,14,10,22c0,13,0,26,0,39c0,3-1,3-3,3c-4,0-8,0-13,0
		c-2,0-3-1-3-3c0-13,0-25,0-37c0-10-6-15-16-13c-6,1-10,6-10,13c0,12,0,24,0,36c0,4-1,5-5,4c-3,0-7,0-11,0c-2,0-3,0-3-2
		C235,139.5,235,132.5,235,125.5z"/>
	<path class="st0" d="M698,131.5c0,5,0,10,0,15c0,2,0,3-2,3c-4,0-9,1-11-1s0-6,0-10c0-7,0-13,0-20s-4-11-10-11c-7,0-11,4-11,10
		c0,9,0,19,0,28c0,3,0,3-3,3c-4,0-8,2-10,0s-1-7-1-10c0-7,0-14,0-20c0-7-4-11-10-11c-7,0-11,4-11,11c0,9,0,18,0,28c0,2,0,3-3,3
		c-3-1-7,1-10-1c-2-1-1-6-1-10c0-7,0-14,0-21c1-10,5-17,14-21s18-3,26,4c1,1,2,1,4,0c7-7,17-8,26-4s13,12,13,21
		C698,122.5,698,126.5,698,131.5z"/>
	<path class="st0" d="M405,150.5c-10,0-17-3-24-9c-1-2-2-3,0-5c3-2,5-4,7-7c2-2,3-2,4-1c3,3,6,5,9,6s6,1,8-1c4-1,4-5,2-8
		c-2-2-5-4-7-4c-4-3-8-4-12-7c-8-6-12-14-10-23c3-8,10-14,20-14c10-1,17,2,23,9c2,1,2,2,0,4c0,0-1,1-2,2c-2,2-4,5-6,6c-3,1-4-3-7-4
		c-2-1-5-2-8-1c-2,0-3,1-4,3c0,2,1,3,3,4s5,3,7,4c4,2,7,4,11,6c8,5,11,12,10,22c-2,9-9,15-18,17C408,150.5,406,150.5,405,150.5z"/>
	<path class="st0" d="M458,150.5c-9,0-16-3-23-10c-1-1-1-2,0-4c3-2,6-5,8-8c1-1,2-1,3,0c3,3,5,4,8,5c2,1,3,2,5,2c4,0,7-2,8-5
		c1-3-1-5-4-7c-3-1-6-3-9-5c-4-2-8-4-11-7c-11-11-7-29,8-33c11-4,21-1,30,8c2,2,2,2,0,4c-3,2-5,5-8,7c-1,1-2,1-3,0c-2-2-4-3-6-4
		s-5-1-7,0c-1,0-3,1-3,3c-1,2,1,4,2,5c3,1,5,3,8,4c3,2,7,3,10,6c8,5,11,13,9,22s-8,14-17,16C463,150.5,460,150.5,458,150.5z"/>
	<path class="st0" d="M172,150.5c-9,0-16-3-22-10c-2-1-2-2,0-4s5-5,7-8c1-1,2-1,3,0c2,2,5,4,7,5s4,2,6,2c3,0,6-1,7-5c1-3-1-5-3-6
		c-3-3-7-4-10-6c-4-2-7-4-10-7c-11-10-7-27,8-33c10-3,22,0,29,8c2,2,2,3,0,5s-4,4-7,6c-1,2-2,2-3,0c-2-1-4-3-7-3c-2-1-4-2-6-1
		s-4,1-4,4c0,2,1,3,3,4s4,3,7,4c3,2,7,3,11,6c8,6,11,13,9,23c-2,9-9,14-18,16C177,150.5,175,150.5,172,150.5z"/>
	<path class="st0" d="M609,122.5c0,16-12,28-27,28s-27-13-27-29c0-15,13-28,27-28C598,94.5,609,106.5,609,122.5z M569,123.5
		c0,3,1,7,4,10c5,6,14,6,19,0c5-6,5-16,0-22c-4-4-9-6-14-4S569,115.5,569,123.5z"/>
	<path class="st0" d="M549,111.5c-11-6-20-6-26,1c-5,6-5,16,1,21c6,6,16,6,25,0c0,5,0,9,0,14c0,1,0,1-1,2c-14,7-35-2-41-17
		c-6-17,6-35,24-38c5-1,11,0,16,1c2,1,3,2,3,4C549,103.5,549,107.5,549,111.5z"/>
	<path class="st0" d="M225,114.5c0,10,0,21,0,31c0,3,0,4-3,4c-4-1-8,0-12,0c-2,0-2-1-2-3c0-21,0-43,0-65c0-1,0-2,2-2c5,0,8,0,13,0
		c2,0,3,1,3,3C225,93.5,225,103.5,225,114.5z"/>
	<path class="st0" d="M216,73.5c-2,0-6,1-8-1s0-5,0-8c0-8,0-8,8-8c2,0,5,0,8,0c1,0,2,0,2,2c0,4,0,9,0,13c0,2-1,2-3,2
		S218,73.5,216,73.5z"/>
	<path class="st0" d="M503,142.5c0,3-3,7-7,7s-8-4-8-8s4-7,8-7S503,138.5,503,142.5z"/>
</g>
</svg>
