<?xml version="1.0" encoding="utf-8"?>
<!-- Generator: Adobe Illustrator 19.2.1, SVG Export Plug-In . SVG Version: 6.00 Build 0)  -->
<svg version="1.1" id="Layer_1" xmlns="http://www.w3.org/2000/svg" xmlns:xlink="http://www.w3.org/1999/xlink" x="0px" y="0px"
	 viewBox="0 0 304 200" style="enable-background:new 0 0 304 200;" xml:space="preserve">
<style type="text/css">
	.st0{fill:#CCCCCC;}
</style>
<g id="Слой_x0020_1">
	<g id="_1618991990080">
		<g>
			<g>
				<path class="st0" d="M258,72.8v54c0,7,2,13,6,17c6,6,14,7,22,6c4,0,8-3,11-5c3-3,7-9,7-15v-59c0-9-6-16-14-19c-10-4-23-1-28,8
					C260,63.8,258,67.8,258,72.8z M281,64.8L281,64.8c4,0,8,3,8,7v57c0,4-4,7-8,7l0,0c-3,0-7-3-7-7v-57C274,67.8,278,64.8,281,64.8z
					"/>
				<path class="st0" d="M150,147.8c0,1,0,1,1,1h15v-40h15v25c1,0,1,0,1-1c9-6,14,3,14,0v-79c0-1,0-1,0-1h-15v41h-15c-1,0-1,0-1-1
					v-40h-15V147.8L150,147.8z"/>
				<path class="st0" d="M205,75.8v48c0,3,1,8,1,11c3,8,8,12,16,15c5,1,11,0,15-1c3-1,6-3,8-4c8-8,6-19,6-31h-14v15c0,7-9,9-13,6
					c-1-1-2-3-2-5v-59c0-3,3-7,6-7c6,0,9,2,9,9v11c0,4-1,2,13,2c1,0,1,0,1-1c0-10,1-22-6-29c-2-2-4-3-6-5c-6-2-15-2-20,1
					c-7,3-13,10-13,18C205,71.8,205,73.8,205,75.8z"/>
				<path class="st0" d="M96,71.8v58c0,7,6,16,13,19c4,1,6,1,9,1c3,1,8,0,10-1c8-2,13-10,13-19v-16h-14v15c0,10-15,9-15,1v-58
					c0-9,15-10,15,1v14h14v-15c0-12-9-21-20-21c-6,0-7,0-12,2l-5,3c-2,2-1,1-3,3c0,0,0,1-1,2c-2,3-2,4-3,7C97,68.8,96,70.8,96,71.8z
					"/>
				<path class="st0" d="M51,148.8h39v-14c-2-1-22-1-23,0v-29h16v-14H67v-26h22c1,0,1,0,1-1v-13H51V148.8z"/>
				<polygon class="st0" points="0,66.8 14,66.8 14,148.8 30,148.8 30,66.8 44,66.8 44,52.8 0,52.8 				"/>
				<path class="st0" d="M181,141.8c0,3,1,5,2,6c8,8,20-3,12-11c-4-4-9-3-12,0C182,137.8,181,139.8,181,141.8z"/>
			</g>
		</g>
	</g>
</g>
</svg>
