<?xml version="1.0" encoding="utf-8"?>
<!-- Generator: Adobe Illustrator 19.2.1, SVG Export Plug-In . SVG Version: 6.00 Build 0)  -->
<svg version="1.1" id="Layer_1" xmlns="http://www.w3.org/2000/svg" xmlns:xlink="http://www.w3.org/1999/xlink" x="0px" y="0px"
	 viewBox="0 0 316.4 181.8" enable-background="new 0 0 316.4 181.8" xml:space="preserve">
<pattern  x="-1689.2" y="-185.2" width="46" height="48" patternUnits="userSpaceOnUse" id="New_Pattern_Swatch_4" viewBox="0 -48 46 48" overflow="visible">
	<g id="XMLID_1064_">
		<rect id="XMLID_1066_" y="-48" fill="none" width="46" height="48"/>
		<rect id="XMLID_1065_" y="-48" fill="#A7FCCA" width="46" height="48"/>
	</g>
</pattern>
<g>
	<g>
		
			<linearGradient id="XMLID_823_" gradientUnits="userSpaceOnUse" x1="-767.0619" y1="-2221.6177" x2="-667.9579" y2="-2221.6177" gradientTransform="matrix(0.6752 0.6506 -0.6939 0.7201 -916.1178 2213.2786)">
			<stop  offset="0" style="stop-color:#00E676"/>
			<stop  offset="0.1341" style="stop-color:#1DEA85"/>
			<stop  offset="0.4229" style="stop-color:#66F3A9"/>
			<stop  offset="0.6613" style="stop-color:#A7FCCA"/>
		</linearGradient>
		<path id="XMLID_1858_" fill="url(#XMLID_823_)" d="M108,120.6l58.8,59.3c1.9,1.8,4.9,1.7,6.9-0.3c1.9-2,2-5.1,0.1-6.9L115,113.4
			c-1.9-1.8-4.9-1.7-6.9,0.3C106.2,115.7,106.2,118.8,108,120.6z"/>
		
			<linearGradient id="XMLID_829_" gradientUnits="userSpaceOnUse" x1="-1176.884" y1="-2631.8445" x2="-1043.7489" y2="-2631.8445" gradientTransform="matrix(0.5823 0.7472 -0.7887 0.6147 -1190.3428 2576.4729)">
			<stop  offset="0" style="stop-color:#00E676"/>
			<stop  offset="0.1341" style="stop-color:#1DEA85"/>
			<stop  offset="0.4229" style="stop-color:#66F3A9"/>
			<stop  offset="0.6613" style="stop-color:#A7FCCA"/>
		</linearGradient>
		<path id="XMLID_1857_" fill="url(#XMLID_829_)" d="M199.4,86l71.2,92.3c1.6,2.1,4.7,2.4,6.9,0.7c2.2-1.7,2.6-4.8,1-6.8l-71.2-92.3
			c-1.6-2.1-4.7-2.4-6.9-0.7C198.2,80.8,197.8,83.9,199.4,86z"/>
		<linearGradient id="XMLID_842_" gradientUnits="userSpaceOnUse" x1="127.9783" y1="124.626" x2="278.6449" y2="124.626">
			<stop  offset="0" style="stop-color:#00E676"/>
			<stop  offset="0.1341" style="stop-color:#1DEA85"/>
			<stop  offset="0.4229" style="stop-color:#66F3A9"/>
			<stop  offset="0.6613" style="stop-color:#A7FCCA"/>
		</linearGradient>
		<path id="XMLID_1855_" opacity="0.6" fill="url(#XMLID_842_)" d="M128,173.2l72.5-95.5c1.6-2.1,4.8-2.1,6.4,0l71.8,95.5"/>
		<linearGradient id="XMLID_852_" gradientUnits="userSpaceOnUse" x1="178.9705" y1="105.1143" x2="223.4375" y2="105.1143">
			<stop  offset="0" style="stop-color:#097DDB"/>
			<stop  offset="0.4067" style="stop-color:#0474BE"/>
			<stop  offset="0.6613" style="stop-color:#006EAA"/>
		</linearGradient>
		<path id="XMLID_1854_" opacity="0.1" fill="url(#XMLID_852_)" d="M179,107.4l21.5-28.9c1.6-2.1,4.7-2.1,6.3,0l16.6,22.6
			l-10.1,30.9c-0.6,1.7-2.9,1.9-3.7,0.3l-12.1-23.8l-7.9,11.2c-0.8,1.2-2.7,1.1-3.4-0.2L179,107.4z"/>
		<linearGradient id="XMLID_853_" gradientUnits="userSpaceOnUse" x1="49.914" y1="142.8589" x2="173.7299" y2="142.8589">
			<stop  offset="0" style="stop-color:#00E676"/>
			<stop  offset="0.1341" style="stop-color:#1DEA85"/>
			<stop  offset="0.4229" style="stop-color:#66F3A9"/>
			<stop  offset="0.6613" style="stop-color:#A7FCCA"/>
		</linearGradient>
		<path id="XMLID_1851_" opacity="0.6" fill="url(#XMLID_853_)" d="M49.9,173.2l59.2-59.5c1.6-1.6,4.1-1.6,5.7,0l58.9,59.5"/>
		<linearGradient id="XMLID_854_" gradientUnits="userSpaceOnUse" x1="94.0308" y1="127.9581" x2="126.1807" y2="127.9581">
			<stop  offset="0" style="stop-color:#097DDB"/>
			<stop  offset="0.4067" style="stop-color:#0474BE"/>
			<stop  offset="0.6613" style="stop-color:#006EAA"/>
		</linearGradient>
		<path id="XMLID_1850_" opacity="0.1" fill="url(#XMLID_854_)" d="M94,130.1l15.1-15.6c1.5-1.5,4-1.5,5.6,0l11.5,11.8l-7.1,15
			c-0.6,1.4-2.5,1.5-3.4,0.3l-8.9-12.1l-5.8,5.7c-0.8,0.8-2.2,0.7-2.9-0.2L94,130.1z"/>
		<path id="XMLID_1847_" fill="#FFFFFF" d="M200.5,78.5l-6.5,9.1l1.7,5.7c0.5,1.6,2.5,2,3.5,0.7l4.6-5.8l8,10.4
			c1,1.3,3.2,0.9,3.5-0.8l1.3-5.6l-9.7-13.6C205.3,76.4,202.1,76.4,200.5,78.5z"/>
		<path id="XMLID_1846_" fill="none" stroke="#666666" stroke-width="2" stroke-miterlimit="10" d="M147.9,147.2l52.5-69.5
			c1.6-2.1,4.8-2.1,6.4,0l71.8,95.5"/>
		<path id="XMLID_1845_" fill="none" stroke="#666666" stroke-width="2" stroke-miterlimit="10" d="M49.9,173.2l59.2-59.5
			c1.6-1.6,4.1-1.6,5.7,0l58.9,59.5"/>
		<pattern  id="XMLID_856_" xlink:href="#New_Pattern_Swatch_4" patternTransform="matrix(1 0 0 1 193 -330)">
		</pattern>
		<path id="XMLID_1843_" fill="url(#XMLID_856_)" d="M194,171.8h112.2c2.8,0,5-2.2,5-5c0-2.8-2.2-5-5-5H194c-2.8,0-5,2.2-5,5
			C189,169.6,191.2,171.8,194,171.8z"/>
		<linearGradient id="XMLID_860_" gradientUnits="userSpaceOnUse" x1="44" y1="176.8127" x2="298.2648" y2="176.8127">
			<stop  offset="0" style="stop-color:#00E676"/>
			<stop  offset="0.1341" style="stop-color:#1DEA85"/>
			<stop  offset="0.4229" style="stop-color:#66F3A9"/>
			<stop  offset="0.6613" style="stop-color:#A7FCCA"/>
		</linearGradient>
		<path id="XMLID_1841_" fill="url(#XMLID_860_)" d="M49,181.8h244.2c2.8,0,5-2.2,5-5c0-2.8-2.2-5-5-5H49c-2.8,0-5,2.2-5,5
			C44,179.6,46.2,181.8,49,181.8z"/>
	</g>
	<linearGradient id="XMLID_877_" gradientUnits="userSpaceOnUse" x1="28.6916" y1="47.3417" x2="92.1311" y2="47.3417">
		<stop  offset="0" style="stop-color:#00E676"/>
		<stop  offset="0.1341" style="stop-color:#1DEA85"/>
		<stop  offset="0.4229" style="stop-color:#66F3A9"/>
		<stop  offset="0.6613" style="stop-color:#A7FCCA"/>
	</linearGradient>
	<path id="XMLID_1840_" opacity="0.2" fill="url(#XMLID_877_)" d="M40.3,63.9c-6.4,0-11.6-5.3-11.6-11.7c0-6.4,5.1-11.6,11.5-11.6
		c0.1,0,0.1,0,0.1,0c1.2-5.1,5.8-8.8,11.2-8.8c1.7,0,3.3,0.4,4.8,1c1.5-1.2,3.5-2,5.6-2c3.3,0,6.2,1.8,7.7,4.5
		c2.2-1.2,4.7-1.9,7.4-1.9c8.4,0,15.1,6.8,15.1,15.1c0,8.4-6.8,15.3-15.1,15.3"/>
	<linearGradient id="XMLID_1889_" gradientUnits="userSpaceOnUse" x1="139.1778" y1="20.3417" x2="185.6449" y2="20.3417">
		<stop  offset="0" style="stop-color:#00E676"/>
		<stop  offset="0.1341" style="stop-color:#1DEA85"/>
		<stop  offset="0.4229" style="stop-color:#66F3A9"/>
		<stop  offset="0.6613" style="stop-color:#A7FCCA"/>
	</linearGradient>
	<path id="XMLID_1839_" opacity="0.2" fill="url(#XMLID_1889_)" d="M147.7,32.4c-4.7,0-8.5-3.9-8.5-8.6c0-4.7,3.8-8.5,8.4-8.5
		c0,0,0.1,0,0.1,0c0.9-3.7,4.2-6.5,8.2-6.5c1.2,0,2.4,0.3,3.5,0.8c1.1-0.9,2.5-1.4,4.1-1.4c2.4,0,4.5,1.3,5.6,3.3
		c1.6-0.9,3.4-1.4,5.4-1.4c6.1,0,11.1,5,11.1,11.1c0,6.1-5,11.2-11.1,11.2"/>
	<linearGradient id="XMLID_1890_" gradientUnits="userSpaceOnUse" x1="279.1449" y1="29.9331" x2="305.9894" y2="29.9331">
		<stop  offset="0" style="stop-color:#00E676"/>
		<stop  offset="0.1341" style="stop-color:#1DEA85"/>
		<stop  offset="0.4229" style="stop-color:#66F3A9"/>
		<stop  offset="0.6613" style="stop-color:#A7FCCA"/>
	</linearGradient>
	<circle id="XMLID_1838_" opacity="0.2" fill="url(#XMLID_1890_)" cx="292.6" cy="29.9" r="13.4"/>
	<linearGradient id="XMLID_1891_" gradientUnits="userSpaceOnUse" x1="185" y1="55.8127" x2="272.2648" y2="55.8127">
		<stop  offset="0" style="stop-color:#00E676"/>
		<stop  offset="0.1341" style="stop-color:#1DEA85"/>
		<stop  offset="0.4229" style="stop-color:#66F3A9"/>
		<stop  offset="0.6613" style="stop-color:#A7FCCA"/>
	</linearGradient>
	<path id="XMLID_1837_" opacity="0.2" fill="url(#XMLID_1891_)" d="M190,60.8h77.2c2.8,0,5-2.2,5-5c0-2.8-2.2-5-5-5H190
		c-2.8,0-5,2.2-5,5C185,58.6,187.2,60.8,190,60.8z"/>
	<linearGradient id="XMLID_1892_" gradientUnits="userSpaceOnUse" x1="134" y1="40.8127" x2="221.2648" y2="40.8127">
		<stop  offset="0" style="stop-color:#00E676"/>
		<stop  offset="0.1341" style="stop-color:#1DEA85"/>
		<stop  offset="0.4229" style="stop-color:#66F3A9"/>
		<stop  offset="0.6613" style="stop-color:#A7FCCA"/>
	</linearGradient>
	<path id="XMLID_1836_" opacity="0.2" fill="url(#XMLID_1892_)" d="M139,45.8h77.2c2.8,0,5-2.2,5-5c0-2.8-2.2-5-5-5H139
		c-2.8,0-5,2.2-5,5C134,43.6,136.2,45.8,139,45.8z"/>
	<linearGradient id="XMLID_1893_" gradientUnits="userSpaceOnUse" x1="0" y1="91.8127" x2="87.2648" y2="91.8127">
		<stop  offset="0" style="stop-color:#00E676"/>
		<stop  offset="0.1341" style="stop-color:#1DEA85"/>
		<stop  offset="0.4229" style="stop-color:#66F3A9"/>
		<stop  offset="0.6613" style="stop-color:#A7FCCA"/>
	</linearGradient>
	<path id="XMLID_1835_" opacity="0.2" fill="url(#XMLID_1893_)" d="M5,96.8h77.2c2.8,0,5-2.2,5-5c0-2.8-2.2-5-5-5H5
		c-2.8,0-5,2.2-5,5C0,94.6,2.2,96.8,5,96.8z"/>
	<linearGradient id="XMLID_1894_" gradientUnits="userSpaceOnUse" x1="8" y1="101.8127" x2="95.2648" y2="101.8127">
		<stop  offset="0" style="stop-color:#00E676"/>
		<stop  offset="0.1341" style="stop-color:#1DEA85"/>
		<stop  offset="0.4229" style="stop-color:#66F3A9"/>
		<stop  offset="0.6613" style="stop-color:#A7FCCA"/>
	</linearGradient>
	<path id="XMLID_1834_" opacity="0.2" fill="url(#XMLID_1894_)" d="M13,106.8h77.2c2.8,0,5-2.2,5-5c0-2.8-2.2-5-5-5H13
		c-2.8,0-5,2.2-5,5C8,104.6,10.2,106.8,13,106.8z"/>
	
		<linearGradient id="XMLID_1895_" gradientUnits="userSpaceOnUse" x1="-767.0619" y1="-2221.6177" x2="-667.9579" y2="-2221.6177" gradientTransform="matrix(0.6752 0.6506 -0.6939 0.7201 -916.1178 2213.2786)">
		<stop  offset="0" style="stop-color:#00E676"/>
		<stop  offset="0.1341" style="stop-color:#1DEA85"/>
		<stop  offset="0.4229" style="stop-color:#66F3A9"/>
		<stop  offset="0.6613" style="stop-color:#A7FCCA"/>
	</linearGradient>
	<path id="XMLID_1833_" fill="url(#XMLID_1895_)" d="M108,120.6l58.8,59.3c1.9,1.8,4.9,1.7,6.9-0.3c1.9-2,2-5.1,0.1-6.9L115,113.4
		c-1.9-1.8-4.9-1.7-6.9,0.3C106.2,115.7,106.2,118.8,108,120.6z"/>
	
		<linearGradient id="XMLID_1896_" gradientUnits="userSpaceOnUse" x1="-1176.884" y1="-2631.8445" x2="-1043.7489" y2="-2631.8445" gradientTransform="matrix(0.5823 0.7472 -0.7887 0.6147 -1190.3428 2576.4729)">
		<stop  offset="0" style="stop-color:#00E676"/>
		<stop  offset="0.1341" style="stop-color:#1DEA85"/>
		<stop  offset="0.4229" style="stop-color:#66F3A9"/>
		<stop  offset="0.6613" style="stop-color:#A7FCCA"/>
	</linearGradient>
	<path id="XMLID_1832_" fill="url(#XMLID_1896_)" d="M199.4,86l71.2,92.3c1.6,2.1,4.7,2.4,6.9,0.7c2.2-1.7,2.6-4.8,1-6.8l-71.2-92.3
		c-1.6-2.1-4.7-2.4-6.9-0.7C198.2,80.8,197.8,83.9,199.4,86z"/>
	<linearGradient id="XMLID_1897_" gradientUnits="userSpaceOnUse" x1="127.9783" y1="124.626" x2="278.6449" y2="124.626">
		<stop  offset="0" style="stop-color:#00E676"/>
		<stop  offset="0.1341" style="stop-color:#1DEA85"/>
		<stop  offset="0.4229" style="stop-color:#66F3A9"/>
		<stop  offset="0.6613" style="stop-color:#A7FCCA"/>
	</linearGradient>
	<path id="XMLID_1831_" opacity="0.6" fill="url(#XMLID_1897_)" d="M128,173.2l72.5-95.5c1.6-2.1,4.8-2.1,6.4,0l71.8,95.5"/>
	<linearGradient id="XMLID_1898_" gradientUnits="userSpaceOnUse" x1="178.9705" y1="105.1143" x2="223.4375" y2="105.1143">
		<stop  offset="0" style="stop-color:#097DDB"/>
		<stop  offset="0.4067" style="stop-color:#0474BE"/>
		<stop  offset="0.6613" style="stop-color:#006EAA"/>
	</linearGradient>
	<path id="XMLID_1830_" opacity="0.1" fill="url(#XMLID_1898_)" d="M179,107.4l21.5-28.9c1.6-2.1,4.7-2.1,6.3,0l16.6,22.6
		l-10.1,30.9c-0.6,1.7-2.9,1.9-3.7,0.3l-12.1-23.8l-7.9,11.2c-0.8,1.2-2.7,1.1-3.4-0.2L179,107.4z"/>
	<linearGradient id="XMLID_1899_" gradientUnits="userSpaceOnUse" x1="49.914" y1="142.8589" x2="173.7299" y2="142.8589">
		<stop  offset="0" style="stop-color:#00E676"/>
		<stop  offset="0.1341" style="stop-color:#1DEA85"/>
		<stop  offset="0.4229" style="stop-color:#66F3A9"/>
		<stop  offset="0.6613" style="stop-color:#A7FCCA"/>
	</linearGradient>
	<path id="XMLID_1829_" opacity="0.6" fill="url(#XMLID_1899_)" d="M49.9,173.2l59.2-59.5c1.6-1.6,4.1-1.6,5.7,0l58.9,59.5"/>
	<path id="XMLID_1828_" fill="none" stroke="#666666" stroke-width="2" stroke-linecap="round" stroke-miterlimit="10" d="
		M35.3,59.9c-6.4,0-11.6-5.3-11.6-11.7c0-6.4,5.1-11.6,11.5-11.6c0.1,0,0.1,0,0.1,0c1.2-5.1,5.8-8.8,11.2-8.8c1.7,0,3.3,0.4,4.8,1
		c1.5-1.2,3.5-2,5.6-2c3.3,0,6.2,1.8,7.7,4.5c2.2-1.2,4.7-1.9,7.4-1.9c8.4,0,15.1,6.8,15.1,15.1c0,8.4-6.8,15.3-15.1,15.3"/>
	<linearGradient id="XMLID_1900_" gradientUnits="userSpaceOnUse" x1="94.0308" y1="127.9581" x2="126.1807" y2="127.9581">
		<stop  offset="0" style="stop-color:#097DDB"/>
		<stop  offset="0.4067" style="stop-color:#0474BE"/>
		<stop  offset="0.6613" style="stop-color:#006EAA"/>
	</linearGradient>
	<path id="XMLID_1827_" opacity="0.1" fill="url(#XMLID_1900_)" d="M94,130.1l15.1-15.6c1.5-1.5,4-1.5,5.6,0l11.5,11.8l-7.1,15
		c-0.6,1.4-2.5,1.5-3.4,0.3l-8.9-12.1l-5.8,5.7c-0.8,0.8-2.2,0.7-2.9-0.2L94,130.1z"/>
	<path id="XMLID_1826_" fill="#FFFFFF" d="M200.5,78.5l-6.5,9.1l1.7,5.7c0.5,1.6,2.5,2,3.5,0.7l4.6-5.8l8,10.4
		c1,1.3,3.2,0.9,3.5-0.8l1.3-5.6l-9.7-13.6C205.3,76.4,202.1,76.4,200.5,78.5z"/>
	<path id="XMLID_1825_" fill="none" stroke="#666666" stroke-width="2" stroke-miterlimit="10" d="M147.9,147.2l52.5-69.5
		c1.6-2.1,4.8-2.1,6.4,0l71.8,95.5"/>
	<g id="XMLID_1821_">
		<polygon id="XMLID_1824_" fill="#ED391B" points="105.8,134.2 101.6,135.5 96.8,134.2 96.8,128.1 101.6,129.4 105.8,128.1 		"/>
		<polygon id="XMLID_1823_" fill="none" stroke="#666666" stroke-miterlimit="10" points="106.3,134.2 101.3,135.5 96.3,134.2 
			96.3,128.1 101.3,129.4 106.3,128.1 		"/>
		<line id="XMLID_1822_" fill="none" stroke="#666666" stroke-miterlimit="10" x1="96.3" y1="142.8" x2="96.3" y2="127.8"/>
	</g>
	<path id="XMLID_1820_" fill="none" stroke="#666666" stroke-width="2" stroke-miterlimit="10" d="M49.9,173.2l59.2-59.5
		c1.6-1.6,4.1-1.6,5.7,0l58.9,59.5"/>
	<path id="XMLID_1812_" fill="none" stroke="#666666" stroke-width="2" stroke-linecap="round" stroke-miterlimit="10" d="
		M141.2,29.9c-4.8,0-8.8-4-8.8-8.8c0-4.8,3.9-8.8,8.7-8.8c0,0,0.1,0,0.1,0c0.9-3.8,4.4-6.7,8.5-6.7c1.3,0,2.5,0.3,3.6,0.8
		c1.2-0.9,2.6-1.5,4.2-1.5c2.5,0,4.7,1.4,5.8,3.4c1.6-0.9,3.6-1.5,5.6-1.5c6.3,0,11.5,5.1,11.5,11.5c0,6.3-5.1,11.6-11.5,11.6"/>
	
		<line id="XMLID_1811_" fill="none" stroke="#666666" stroke-width="2" stroke-linecap="round" stroke-miterlimit="10" x1="140.8" y1="39.8" x2="188.8" y2="39.8"/>
	
		<line id="XMLID_1808_" fill="none" stroke="#666666" stroke-width="2" stroke-linecap="round" stroke-miterlimit="10" x1="19.8" y1="91.8" x2="67.8" y2="91.8"/>
	
		<line id="XMLID_1807_" fill="none" stroke="#666666" stroke-width="2" stroke-linecap="round" stroke-miterlimit="10" x1="31.8" y1="98.8" x2="79.8" y2="98.8"/>
	
		<line id="XMLID_1806_" fill="none" stroke="#666666" stroke-width="2" stroke-linecap="round" stroke-miterlimit="10" x1="195.8" y1="39.8" x2="207.8" y2="39.8"/>
	
		<line id="XMLID_1805_" fill="none" stroke="#666666" stroke-width="2" stroke-linecap="round" stroke-miterlimit="10" x1="187.8" y1="55.8" x2="235.8" y2="55.8"/>
	
		<line id="XMLID_1804_" fill="none" stroke="#666666" stroke-width="2" stroke-linecap="round" stroke-miterlimit="10" x1="242.8" y1="55.8" x2="254.8" y2="55.8"/>
	
		<line id="XMLID_1803_" fill="none" stroke="#666666" stroke-width="2" stroke-linecap="round" stroke-miterlimit="10" x1="43.8" y1="59.8" x2="55.8" y2="59.8"/>
	<g>
		<circle id="XMLID_1802_" fill="none" stroke="#666666" stroke-width="2" stroke-miterlimit="10" cx="291.1" cy="25.3" r="12.5"/>
		
			<line id="XMLID_1801_" fill="none" stroke="#666666" stroke-width="2" stroke-linecap="round" stroke-miterlimit="10" x1="290.8" y1="8" x2="290.8" y2="1"/>
		
			<line id="XMLID_1800_" fill="none" stroke="#666666" stroke-width="2" stroke-linecap="round" stroke-miterlimit="10" x1="308.4" y1="25.8" x2="315.4" y2="25.8"/>
		
			<line id="XMLID_1799_" fill="none" stroke="#666666" stroke-width="2" stroke-linecap="round" stroke-miterlimit="10" x1="303.1" y1="12.8" x2="308.1" y2="7.9"/>
	</g>
	<pattern  id="XMLID_1901_" xlink:href="#New_Pattern_Swatch_4" patternTransform="matrix(1 0 0 1 193 -330)">
	</pattern>
	<path id="XMLID_1798_" fill="url(#XMLID_1901_)" d="M194,171.8h112.2c2.8,0,5-2.2,5-5c0-2.8-2.2-5-5-5H194c-2.8,0-5,2.2-5,5
		C189,169.6,191.2,171.8,194,171.8z"/>
	<linearGradient id="XMLID_1902_" gradientUnits="userSpaceOnUse" x1="44" y1="176.8127" x2="298.2648" y2="176.8127">
		<stop  offset="0" style="stop-color:#00E676"/>
		<stop  offset="0.1341" style="stop-color:#1DEA85"/>
		<stop  offset="0.4229" style="stop-color:#66F3A9"/>
		<stop  offset="0.6613" style="stop-color:#A7FCCA"/>
	</linearGradient>
	<path id="XMLID_1797_" fill="url(#XMLID_1902_)" d="M49,181.8h244.2c2.8,0,5-2.2,5-5c0-2.8-2.2-5-5-5H49c-2.8,0-5,2.2-5,5
		C44,179.6,46.2,181.8,49,181.8z"/>
	<g id="XMLID_1791_">
		<polyline id="XMLID_1796_" fill="none" stroke="#00E676" stroke-miterlimit="10" points="72.9,176.5 77.5,159.7 110.1,157.7 
			94.7,148.2 		"/>
		
			<circle id="XMLID_1795_" fill="#FFFFFF" stroke="#2ECB70" stroke-width="2" stroke-miterlimit="10" cx="73.4" cy="176.2" r="3.8"/>
		<circle id="XMLID_1794_" fill="#FFFFFF" stroke="#2ECB70" stroke-width="2" stroke-miterlimit="10" cx="78.1" cy="160" r="3.8"/>
		
			<circle id="XMLID_1793_" fill="#FFFFFF" stroke="#2ECB70" stroke-width="2" stroke-miterlimit="10" cx="110.3" cy="157.7" r="3.8"/>
		
			<circle id="XMLID_1792_" fill="#FFFFFF" stroke="#ED391B" stroke-width="2" stroke-miterlimit="10" cx="96.5" cy="148.5" r="3.8"/>
	</g>
</g>
</svg>
