<?xml version="1.0" encoding="utf-8"?>
<!-- Generator: Adobe Illustrator 19.0.0, SVG Export Plug-In . SVG Version: 6.00 Build 0)  -->
<svg version="1.1" id="Layer_5" xmlns="http://www.w3.org/2000/svg" xmlns:xlink="http://www.w3.org/1999/xlink" x="0px" y="0px"
	 width="1193.7px" height="156.9px" viewBox="291 318.1 1193.7 156.9" style="enable-background:new 291 318.1 1193.7 156.9;"
	 xml:space="preserve">
<style type="text/css">
	.st0{fill:#494949;}
	.st1{fill:#51BA6E;}
	.st2{fill:#AF9230;}
	.st3{fill:#B67232;}
	.st4{fill:#DF7D26;}
	.st5{fill:#CD852A;}
	.st6{fill:#7F4B75;}
	.st7{fill:#C7882B;}
	.st8{fill:#C18B2C;}
	.st9{fill:#BE4275;}
	.st10{fill:#CD3575;}
	.st11{fill:#8E3677;}
	.st12{fill:#B19130;}
	.st13{fill:#CC642A;}
	.st14{fill:#E45526;}
	.st15{fill:#CEB841;}
	.st16{fill:#AE7737;}
	.st17{fill:#64BF7B;}
	.st18{fill:#EC7824;}
	.st19{fill:#972978;}
	.st20{fill:#59BC74;}
	.st21{fill:#61BE79;}
	.st22{fill:#932F77;}
	.st23{fill:#9D317A;}
	.st24{fill:#8D9147;}
	.st25{fill:#AC7B38;}
	.st26{fill:#834D76;}
	.st27{fill:#65C07C;}
	.st28{fill:#73B965;}
	.st29{fill:#BEB748;}
	.st30{fill:#63BF7A;}
	.st31{fill:#5DBD76;}
	.st32{fill:#E07F29;}
	.st33{fill:#C07F2C;}
	.st34{fill:#959641;}
	.st35{fill:#AD9433;}
	.st36{fill:#66C07C;}
	.st37{fill:#B37A39;}
	.st38{fill:#80A94A;}
	.st39{fill:#E3AB4E;}
	.st40{fill:#A48C47;}
	.st41{fill:#69C07E;}
	.st42{fill:#D07041;}
	.st43{fill:#5CA674;}
	.st44{fill:#6DAA7F;}
	.st45{fill:#7DC78D;}
	.st46{fill:#B4DCB9;}
	.st47{fill:#B4902F;}
	.st48{fill:#D4B640;}
	.st49{fill:#CA3976;}
	.st50{fill:#C16B2D;}
	.st51{fill:#A22479;}
	.st52{fill:#DA5B28;}
	.st53{fill:#864176;}
	.st54{fill:#C8B943;}
	.st55{fill:#942B78;}
	.st56{fill:#834677;}
	.st57{fill:#C9662B;}
	.st58{fill:#B48F2F;}
	.st59{fill:#C46A2C;}
	.st60{fill:#942B77;}
	.st61{fill:#D55F29;}
	.st62{fill:#CC3675;}
	.st63{fill:#CDB842;}
	.st64{fill:#B44A75;}
	.st65{fill:#C9862B;}
	.st66{fill:#AE7837;}
	.st67{fill:#CC3876;}
	.st68{fill:#923278;}
	.st69{fill:#C8882B;}
	.st70{fill:#C4B945;}
	.st71{fill:#58A672;}
	.st72{fill:#B9B949;}
	.st73{fill:#B94C76;}
	.st74{fill:#82B054;}
	.st75{fill:#B9872E;}
	.st76{fill:#A1813C;}
	.st77{fill:#8A3977;}
	.st78{fill:#BC9033;}
	.st79{fill:#BDB949;}
	.st80{fill:#C5B944;}
	.st81{fill:#BBBA47;}
	.st82{fill:#C38A2D;}
	.st83{fill:#AA5875;}
	.st84{fill:#CD4578;}
	.st85{fill:#809B4D;}
	.st86{fill:#D88229;}
	.st87{fill:#D2B741;}
	.st88{fill:#894679;}
	.st89{fill:#D82A77;}
	.st90{fill:#844877;}
	.st91{fill:#BE4175;}
	.st92{fill:#5AAD6F;}
	.st93{fill:#60AF64;}
	.st94{fill:#65A871;}
	.st95{fill:#D75C28;}
	.st96{fill:#7F8474;}
	.st97{fill:#AE9433;}
	.st98{fill:#897573;}
	.st99{fill:#6BBA66;}
	.st100{fill:#BD6F30;}
	.st101{fill:#AA7A38;}
	.st102{fill:#D65D29;}
	.st103{fill:#B04F75;}
	.st104{fill:#DA6027;}
	.st105{fill:#DD7E27;}
	.st106{fill:#AC5474;}
	.st107{fill:#CB3876;}
</style>
<title>LogoRenderForest AI</title>
<path class="st0" d="M992.8,455v-86.7c0-6.6,1.7-11.4,5-14.3c3.4-3,7.8-4.5,12.3-4.4h0.9l42.8,1.4v2h-42.8
	c-9.8,0-14.7,5.1-14.7,15.3V401l51.7,0.7v2l-51.7,0.7V455L992.8,455L992.8,455z"/>
<path class="st0" d="M1076.9,442.3c-2.1-4.9-3.6-10.1-4.3-15.3c-2.2-16.1-2.2-32.4,0.1-48.5c1.2-6.7,2.7-11.9,4.6-15.8
	c1.8-3.7,4.6-6.8,8.1-8.9c3.2-2,6.8-3.3,10.5-4c4.3-0.6,8.6-0.9,12.9-0.9c4.1,0,8.2,0.1,12.3,0.6c3.2,0.4,6.4,1.2,9.4,2.5
	c3,1.1,5.7,3,7.7,5.5c2.2,2.9,4,6.1,5.3,9.6c3.1,7.5,4.6,19.5,4.6,36c0,17.6-2,30.4-6,38.6c-1.7,3.7-4.4,6.8-7.8,8.9
	c-3.3,2-6.9,3.4-10.7,4.1c-4.7,0.7-9.4,1.1-14.2,1c-4.7,0.1-9.4-0.2-14-0.9c-3.7-0.6-7.3-1.9-10.5-3.8
	C1081.4,448.9,1078.6,445.9,1076.9,442.3z M1076.8,374.7c-1,4-1.7,8.2-1.9,12.3c-0.4,4.8-0.6,10.8-0.6,18.1c0,6.5,0.4,13.1,1.3,19.6
	c0.6,4.9,1.8,9.6,3.6,14.2c1.3,3.5,3.7,6.4,6.8,8.4c3,1.9,6.3,3.2,9.8,3.9c4.8,0.8,9.6,1.1,14.5,1c5.1,0.1,10.2-0.5,15.2-1.7
	c4.1-1.2,7.8-3.6,10.7-6.8c3.1-3.4,5.3-8.4,6.5-14.9c1.3-7.8,2-15.6,1.8-23.5c0.1-7.4-0.2-14.8-0.9-22.1c-0.4-4.8-1.5-9.5-3.1-14
	c-1.2-3.2-2.8-6.2-4.8-8.9c-1.9-2.3-4.3-4.1-7.1-5.1c-2.8-1.1-5.6-1.9-8.6-2.2c-3.3-0.4-6.5-0.5-9.8-0.5c-3.7,0-6.6,0.1-8.6,0.2
	s-4.2,0.4-6.7,0.9c-2.2,0.3-4.2,1-6.1,2.2c-1.8,1.1-3.4,2.4-5,3.9c-1.8,1.7-3.3,3.8-4.2,6.2C1078.5,368.6,1077.6,371.6,1076.8,374.7
	L1076.8,374.7z"/>
<path class="st0" d="M1167,455V349.6h39.7c3,0,6,0.3,8.9,0.9c2.9,0.8,5.6,2,8,3.7c5.7,3.8,8.5,11.9,8.5,24.2
	c0,12.8-2.5,21.2-7.6,25.2c-2.1,1.7-4.5,3-7.1,3.8c-2.7,0.7-5.4,1-8.1,1.1l23.2,46.5h-3.6l-23.3-46.5c-22.5-0.4-34.1-0.9-35-1.4v48
	L1167,455L1167,455z M1170.5,405h36.3c2.8,0.1,5.6-0.3,8.3-0.9c2.5-0.7,4.8-1.9,6.8-3.5c4.4-3.7,6.6-11.1,6.6-22.2
	c0-12-3.1-19.6-9.4-22.8c-3.9-1.7-8.1-2.6-12.4-2.5h-36.3V405L1170.5,405z"/>
<path class="st0" d="M1253.5,437.3v-69c0-6.6,1.7-11.4,5-14.3c3.4-3,7.8-4.5,12.3-4.4h0.9l42.8,1.4v2h-42.8
	c-9.8,0-14.7,5.1-14.7,15.3V401l51.7,0.7v2l-51.7,0.7v32.8c0,6,1.4,9.9,4.3,11.8c2.9,1.9,6.8,2.9,11.8,2.9h41.3v2l-41.2,1.4h-2.8
	c-1.6,0-3.1-0.2-4.7-0.5c-2.1-0.4-4.1-1.2-6-2.2C1255.6,450.2,1253.5,445.1,1253.5,437.3z"/>
<path class="st0" d="M1334.5,383.9v-9.5c0-9.7,2.4-16.4,7.1-20.1c4.8-3.7,11.9-5.5,21.5-5.5c10.4,0.1,20.8,1,31.1,2.7v1.9l-32-1.1
	h-1.9c-7,0-12.5,1.6-16.5,4.8c-4,3.2-6,9-6,17.4v9.5c0,7,1.7,11.7,5.1,14.1c3.4,2.4,8.8,3.6,16.1,3.6h16.4c8.8,0,14.9,1.8,18.3,5.5
	c3.4,3.7,5,8.9,5,15.6v9.8c0,9.8-2.9,16.3-8.8,19.6c-4.8,2.7-11.2,4-19.2,4c-4,0-9.9-0.2-17.6-0.6c-5.4-0.2-10.8-0.7-16.2-1.5v-2.2
	c6.3,0.6,17.6,0.9,33.8,0.9c7.6,0,13.6-1.4,17.9-4.3s6.6-8.2,6.6-15.8v-9.8c0-6.2-1.5-10.8-4.6-13.5c-3.1-2.8-8.2-4.2-15.2-4.2
	h-16.1c-10.6,0-17.5-2.2-20.9-6.5c-1.5-1.9-2.6-4.1-3.2-6.5C1334.7,389.4,1334.5,386.6,1334.5,383.9z"/>
<path class="st0" d="M1410.1,353.1v-3.5h74.6v3.5h-36v102h-3.5V353L1410.1,353.1L1410.1,353.1z"/>
<path class="st1" d="M372.1,432.2c-0.5,0.5-1.1,0.8-1.8,1c-1.5-0.2-3.1-0.2-4.6-0.1c-0.4,0-0.7,0.2-0.7,0.6c0,0.1,0,0.1,0,0.2
	c-0.1,0.6-0.1,1.2,0.2,1.7c0.1,0.2,0.4,0,0.5-0.1c0.4-0.3,0.8-0.5,1.3-0.5c0.2,0,0.3,0.2,0.3,0.4l-6.3,4.3c-0.7,0.1-0.4-0.4-0.4-0.8
	c0.3-0.3,0.7-0.4,1-0.7l0.3-0.2c-0.1,0-0.2,0.1-0.3,0.2c-0.6,0.3-1.1,0.6-1.5,1.1c-0.2,0.2-0.5,0.4-0.8,0.6
	c-0.8,0.3-1.5,0.7-2.2,1.2c-1.3,0.8-2.7,1.5-4.1,2.4c-1.7,0.9-3.3,2-5,2.9c-0.4,0.2-0.9,0.4-1.3,0.5l-11.3,6.5l-1.6,0.9h-0.2
	c-1.1-0.1-2,0.1-2.2,1.4c-3.7,2.2-7.4,4.4-11.2,6.5c-4.7,2.7-9.5,5.4-14.2,8.2c-1.8,1.2-4.1,1.2-5.9,0.2c-2-1.1-2.8-2.9-2.8-5.2
	c0-18.2,0.1-36.5,0-54.7c0-7.8-0.5-15.5-1.3-23.2c-0.4-3.7-0.6-7.5-0.9-11.2c-0.2-0.5-0.1-1,0.1-1.4c0.3,0.8,0.5,1.6,0.6,2.5
	c0.2,0.9,0.3,1.9,0.2,2.9c0,0.5,0,0.9,0.1,1.4c0,0.6,0,1.2,0,1.8c0.2,0.9,0.3,1.8,0.2,2.8c0.1,0.1,0.3-0.1,0.1,0
	c-0.3-0.9,0-1.9-0.4-2.8c0-0.7,0-1.4-0.1-2.1c-0.1-0.7,0-1.4,0-2.2c0.2-0.6-0.5-1.4,0.5-1.7l0.2,1.9c0.2,0.3,0.3,0.7,0.2,1.1
	c-0.1,3.1,0.2,6.2,0.1,9.3c0,0.6,0,1.1,0,1.7c0,0.5,0,1,0,1.4c0-0.5,0-1,0-1.4c0-0.6,0-1.2,0-1.8c0.1-2.7-0.2-5.4-0.1-8
	c0.3-19.1,0.1-38.1,0.1-57.2c0-0.4,0-0.7,0.1-1.1c0.8-4.7,4.6-6.5,8.7-4.2c10.8,6.2,21.6,12.4,32.4,18.7l27.2,15.7
	c0.3,0.2,0.6,0.4,0.9,0.6c0.3,0.5,0.4,1.1,0.3,1.7c-0.1,0.5,0.3,1.1,0.8,1.1c0.1,0,0.2,0,0.3,0c1.3-0.1,2.5,0,3.8,0.1l3.1,1.8
	c-0.5,0.7-0.7,1.5-0.6,2.4c0,1.8,0,3.5,0,5.2c0.1,0.5,0,1-0.2,1.5c-0.1,0.1-0.2,0.2-0.4,0.2c-2.3,0-4.6,0-6.9,0
	c-1.4,0-1.5,0.1-1.6,1.6c0,1.9,0,3.7,0,5.6c0,1.3,0.1,1.4,1.4,1.4c2.3,0,4.6,0,6.9,0c0.2,0,0.4,0.1,0.6,0.2c0.1,0.1,0.2,0.2,0.2,0.4
	c0,0.2,0,0.3,0,0.5c-0.2,2.3,0,4.6-0.1,6.9c0,1.6-0.2,1.8-1.8,1.8c-2.5,0-5.1,0-7.6,0c-3,0-6,0-9,0H355c-2.4,0-4.9,0-7.3,0
	c-1.3,0-1.4,0.1-1.4,1.4c0.1,2.3-0.2,4.6,0.2,6.9c0.2,0.2,0.4,0.4,0.7,0.3c2.5,0,5,0,7.6,0c0.3,0,0.5-0.1,0.8-0.2c3-0.1,6-0.1,9,0
	s6.1-0.1,9.1,0s6.2,0,9.4,0c2.6-0.1,5.3,0,7.9,0c0.4,0,0.9,0.1,1.2,0.3c0.2,0.2,0.3,0.5,0.3,0.8c0.2,2.8,0.1,5.6,0,8.4
	c-0.1,0.2-0.3,0.4-0.5,0.5c-2.4,0.3-4.8,0.1-7.3,0.1c-0.5,0-1,0-1.5,0c-2.4,0.1-4.9,0-7.3,0c-1.7,0-1.7,0-1.7,1.8c0,1.8,0,3.4,0,5
	c0.1,0.6,0,1.1-0.2,1.6c-0.1,0.1-0.2,0.2-0.4,0.3c-2.3,0.2-4.6,0.2-6.9,0.1c-0.8-0.1-1.5,0.1-2.2,0.3c-1.3,0.2-2.7,0.3-4.1,0.2
	c-1,0-2,0-3,0c-0.5-0.1-1.1,0.2-1.2,0.7c0,0.2,0,0.3,0,0.5c0,1.8,0,3.5,0,5.3c-0.1,0.5,0.2,1.1,0.7,1.2c0.2,0,0.3,0,0.5,0
	c1.7,0,3.4,0,5.2,0c0.6,0,1.2,0,1.8,0.2c0.1,0.1,0.3,0.1,0.4,0.2c0.4,0.5,0.6,1.1,0.5,1.8c0,2,0,4,0,6c-0.2,0.5,0,1.1,0.5,1.3
	c0.2,0.1,0.5,0.1,0.7,0c1.5,0,3,0,4.4,0C371.4,431.7,372,431.6,372.1,432.2z"/>
<path class="st2" d="M401.2,374.3l0.2,0.2c0.5,0.8,0.2,1.8,0.4,2.6c0,0.1,0,0.3,0,0.4c-0.1,2.4,0,4.8-0.1,7.2
	c-0.1,0.5,0.2,1.1,0.8,1.2c0.1,0,0.3,0,0.5,0c1.9,0,3.7,0,5.6,0c0.6,0,1.1,0,1.7,0.1c0.1,0.1,0.3,0.2,0.3,0.3c0,0.2-0.1,0.3-0.2,0.4
	c-1.8,0.2-3.6,0.2-5.4,0.1c-1,0-2,0-3,0h-0.9c-2.5,0.1-5,0-7.5,0c-0.4,0-0.8-0.1-1.1-0.2c-0.1-0.1-0.3-0.2-0.3-0.3
	c-0.2-1.4-0.3-2.8-0.2-4.1c0-1.1,0-2.3,0-3.5c-0.1-0.6,0.1-1.1,0.5-1.5c0.5-0.2,1.1-0.3,1.6-0.3c1.8,0,3.6,0,5.5,0
	c0.6,0.1,1.1-0.2,1.3-0.8c0-0.2,0-0.3,0-0.5C400.8,375.2,400.9,374.7,401.2,374.3z"/>
<path class="st3" d="M383.1,425.6c0,0-0.1,0.1-0.2,0.1c-0.6-0.8-0.3-1.8-0.4-2.7c0-2.1,0-4.3,0-6.5c0-1.8,0-1.8-1.9-1.8h-5
	c-0.5,0.1-1,0-1.5-0.3c-0.1-0.1-0.2-0.3-0.1-0.4c0.5-0.3,1-0.4,1.6-0.3c1.9,0,3.8,0,5.7,0c0.5,0.1,1,0,1.5-0.3
	c0.3-0.4,0.4-0.9,0.3-1.4c0-1.8,0-3.7,0-5.5c0-1.4,0.1-1.4,1.4-1.4c2.5,0,5-0.1,7.5,0c0.4,0.4,0.5,1,0.4,1.6c0,1.8,0,3.5,0,5.3
	c0,0.6,0.1,1.2,0.3,1.8c0.1,0.1,0.1,0.3,0.1,0.4c0.2,1.7,0.1,3.3,0.1,5c0,0.4-0.1,0.8-0.4,1.1l-0.2,0.2c-0.6-0.9-0.3-1.9-0.4-2.8
	c-0.1-3.4,0.4-3-3-3c-1.4,0-2.8,0-4.2,0c-0.5-0.1-1.1,0.2-1.2,0.7c0,0.2,0,0.3,0,0.5c0,2.4,0,4.7,0,7.1
	C383.5,423.8,383.8,424.8,383.1,425.6z"/>
<path class="st4" d="M392.5,377.3c-0.3,1.1-0.3,2.1-0.2,3.2c0,2,0,3.9,0,5.9c-0.2,0.3-0.6,0.5-0.9,0.4c-2.4,0.1-4.9,0.1-7.3,0
	c-0.3,0-0.6-0.1-0.8-0.2c-0.1,0-0.1-0.1-0.1-0.2c0-3-0.2-6.1,0.1-9.1c0.1-0.1,0.2-0.3,0.3-0.3c1.2-0.4,2.5-0.1,3.8-0.2
	c1.3-0.1,3.1,0.6,4-0.4c0.9-1,0.2-2.7,0.3-4.1c0-0.7,0-1.4,0-2.2c0-0.4-0.1-0.9,0.6-1c0.2,0,0.3,0.1,0.4,0.2c-0.1,2.2,0,4.4-0.1,6.6
	C392.7,376.4,392.7,376.9,392.5,377.3z"/>
<path class="st5" d="M410.5,386.1c-2.8,0-5.5,0-8.3,0c-0.3,0.1-0.7-0.1-0.8-0.5c0-0.1,0-0.2,0-0.3c0-2.5,0-5,0-7.5
	c0-0.2,0.1-0.5,0.3-0.6c1.5-0.5,3-0.5,4.5,0c1.5,0.7,2.9,1.5,4.3,2.5c0.7,1.4,0.3,2.9,0.4,4.3C411.1,384.7,411,385.5,410.5,386.1z"
	/>
<path class="st6" d="M383.2,422.9c0-2.6,0-5.1,0-7.7c-0.1-0.4,0.2-0.9,0.6-1c0.1,0,0.3,0,0.4,0c2.4,0,4.7,0,7.1,0c0.8,0,1,0.3,1,1
	c0,1.7,0,3.4,0,5.2c-1.5,1-3.1,1.9-4.7,2.7c-1,0.4-2.1,0.5-3.2,0.4C383.9,423.6,383.5,423.3,383.2,422.9z"/>
<path class="st7" d="M392.3,369.1c-0.3,0.3-0.4,0.8-0.2,1.2c0,1.9,0,3.8,0,5.8c0.1,0.4-0.1,0.9-0.5,1c-0.2,0.1-0.3,0.1-0.5,0
	c-2.6,0-5.1,0-7.7,0c-0.3-0.4-0.4-0.9-0.4-1.3c0-2,0-4,0-6c0-1.4,0.2-1.7,1.6-1.6c2.1,0.1,4.3-0.4,6.4,0.3L392.3,369.1z"/>
<path class="st8" d="M373.5,431.3l-0.6,0.4c-0.8,0.2-1.6,0.3-2.4,0.1c-1.6,0-3.1,0-4.7,0c-0.5,0-0.9,0-0.8-0.7
	c0.1-2.6-0.1-5.3,0.1-7.9c0.2-0.2,0.6-0.3,0.9-0.3c2.2,0,4.5,0,6.7,0c0.5-0.1,1,0.2,1.1,0.7c0,0,0,0.1,0,0.1c0.2,2.3,0.1,4.7-0.1,7
	C373.7,431,373.6,431.2,373.5,431.3z"/>
<path class="st9" d="M422.5,386.6c2.4,1.2,4.6,2.5,6.8,4c0.5,1.6,0.5,3.3,0,4.9c-0.3,0.3-0.7,0.4-1.1,0.4c-2.4,0-4.7,0-7.1,0
	c-0.4,0-0.7-0.1-1-0.3c-0.2-0.2-0.3-0.5-0.3-0.8c0-2.6-0.1-5.1,0-7.7c0-0.2,0.1-0.3,0.2-0.4C420.8,386,421.6,386.4,422.5,386.6z"/>
<path class="st10" d="M410.8,409.8c-2.4,1.5-4.9,2.9-7.4,4.3c-0.6,0.3-1.2,0.3-1.8,0c-0.1-0.1-0.2-0.3-0.2-0.4
	c-0.1-2.6,0-5.2-0.1-7.8c-0.1-0.4,0.1-0.9,0.5-1.1c2.7-0.2,5.4-0.2,8.1-0.1c0.4,0,0.7,0.2,0.9,0.5
	C411.3,406.6,411.3,408.2,410.8,409.8z"/>
<path class="st11" d="M373.7,368.2c0.3-0.7,0.3-1.5,0.2-2.3c0-1.9,0-3.9,0-5.8c0-0.6,0-1.1,0.9-1c2.8,1.6,5.7,3.2,8.4,4.9
	c0.1,1.5,0.5,3-0.3,4.4c-0.4,0.2-0.9,0.3-1.4,0.3c-2.1,0-4.2,0-6.3,0C374.7,368.7,374.1,368.5,373.7,368.2z"/>
<path class="st12" d="M420.2,395.6l9.1,0l0.2,0.1c0.3,1,0.3,2,0.1,3c-0.8,0.9-1.8,1.5-2.9,2c-2.1,1.2-4.1,2.4-6.2,3.5
	c-0.4-0.1-0.6-0.5-0.5-0.9c0-2.5-0.1-4.9,0.1-7.3C420,395.8,420,395.7,420.2,395.6z"/>
<path class="st13" d="M392.5,377.3c-0.4-1.2-0.1-2.5-0.2-3.7s0-2.2,0-3.2c0-0.4-0.1-0.8,0.4-1l8.5,4.9c0,3,0,3-3,3L392.5,377.3z"/>
<path class="st14" d="M383,422.9v2.7c-0.8,0.8-1.7,1.4-2.7,1.8c-2,1.1-3.9,2.3-5.9,3.4c-0.1,0.1-0.3,0.1-0.4,0c0,0,0,0,0-0.1
	c-0.3-2.4-0.1-4.9-0.1-7.3c0-0.4,0.2-0.8,0.7-0.8c0,0,0,0,0.1,0c2.7-0.2,5.4-0.2,8.1,0.1C382.8,422.8,382.9,422.8,383,422.9z"/>
<path class="st15" d="M410.5,386.1l0.1-6.4l9.9,5.7c0.1,0.4-0.1,0.8-0.4,1.1c-0.1,0-0.3,0-0.4,0c-2.5-0.1-5,0-7.5,0
	C411.6,386.6,411.1,386.5,410.5,386.1L410.5,386.1z"/>
<path class="st16" d="M401.6,413.8c0,0.1,0.1,0.1,0.1,0.2c0.2,0.2,0.3,0.6,0.2,0.9l-9.4,5.3V414c0.1-0.2,0.3-0.2,0.5-0.3
	C395.9,413.6,398.8,413.6,401.6,413.8z"/>
<path class="st17" d="M360.6,439c0.2,0.1-0.1,0.6,0.4,0.7c-3.8,2.6-7.5,5.3-11.2,7.9c-12.4,8.6-24.7,17.1-37.1,25.6
	c-0.3,0.2-0.7,0.4-1,0.6c-0.1,0-0.3-0.1-0.3-0.3l24.2-16.7l14.3-9.9c0.3-0.2,0.6-0.5,1-0.7c0.6-0.6,1.3-1.2,2-1.6
	c0.5-0.4,1-0.7,1.4-1c0.7-0.4,1.3-0.9,2-1.3c0.5-0.3,0.9-0.6,1.3-0.9c0.2-0.2,0.4-0.5,0.4-0.8c0.4-0.3,0.8-0.6,1.3-0.9l0.6-0.5
	C360.1,439.3,360.3,438.8,360.6,439z"/>
<path class="st17" d="M358,440.7c0.2,0.2,0.2,0.4,0,0.6c-0.1,0.1-0.2,0.1-0.3,0.1c-0.5,0.3-1.1,0.7-1.6,1s-1.3,0.8-1.9,1.2
	c-0.4,0.4-1,0.6-1.5,1c-0.8,0.4-1.4,1.1-2.3,1.2c-4,2.5-7.9,4.9-11.9,7.4l-30.5,19c-0.2,0.1-0.5,0.2-0.8,0.3c-0.3,0-0.6-0.1-0.8-0.3
	c4.1-1.9,7.8-4.6,11.6-6.9c9.6-5.9,19.2-12,28.8-18c0.1-0.1,0.2-0.2,0.2-0.2c1.8-1.6,3.9-2.5,5.9-3.8c1.4-0.9,2.8-1.7,4.2-2.5
	C357.4,440.7,357.7,440.6,358,440.7z"/>
<path class="st18" d="M418.9,405.1l-7.6,4.4c-0.4,0-0.4-0.2-0.4-0.5c0-1.4-0.1-2.8,0.1-4.1c0.3-0.2,0.6-0.3,1-0.3c1.9,0,3.9,0,5.8,0
	C418.3,404.5,418.7,404.7,418.9,405.1z"/>
<path class="st19" d="M383,368.1c0.1-1.4-0.3-2.9,0.2-4.3c2.5,1.3,4.9,2.7,7.2,4.1c-0.2,0.5-0.7,0.3-1,0.3c-1.9,0-3.9,0-5.8,0
	c-0.1,0-0.3,0-0.4,0L383,368.1z"/>
<path class="st20" d="M296.5,377.3c-0.5,0.5-0.1,1.2-0.3,1.7c-0.1,0-0.3,0-0.3-0.1c0,0,0,0,0,0c-0.4-1.5,0-3.1,0-4.6
	c0.1-0.4,0-0.9-0.1-1.3c-0.1-6.4-0.4-12.8-0.6-19.2c-0.1-2.4-0.1-4.7-0.2-7.1c-0.2-0.8-0.1-1.7,0.2-2.5c0.5,1.6,0,3.4,0.4,5
	c0.1,3,0.3,6,0.4,9.1c0.2,6.2,0.4,12.3,0.6,18.5C296.6,377,296.6,377.1,296.5,377.3z"/>
<path class="st21" d="M295.6,349.2c-0.5-1-0.1-2-0.2-3c0-0.6-0.1-1.2-0.3-1.8c0,0.7,0,1.5,0,2.2c-0.4-2.8-0.2-5.6-0.4-8.4
	c-0.2-3.9-0.3-7.8-0.4-11.7c0-0.9,0.1-1.8,0.4-2.6c0-0.1,0.1-0.1,0.2-0.1c0,0,0,0,0.1,0.1c0,6.5,0.3,12.9,0.6,19.4
	C295.5,345.3,295.5,347.3,295.6,349.2z"/>
<path class="st22" d="M367,435.1c-0.7,0.4-1.4,0.8-2.2,1.1c0,0-0.1-0.1-0.1-0.1c-0.2-3.3-0.2-3.3,3.1-3.3h2.4c0.5,0,0.4,0.2,0.2,0.5
	l-2,1.2C368,434.7,367.5,435,367,435.1z"/>
<path class="st23" d="M371.7,357.2c-1.5,0.2-3.1,0.2-4.6,0.1c-0.3,0.1-0.6-0.1-0.7-0.5c0-0.1,0-0.2,0-0.3c0-0.8,0.1-1.6,0.1-2.4
	L371.7,357.2z"/>
<path class="st24" d="M420,386.4h0.2c0,0,0.1,0.1,0.1,0.1c0,0,0,0,0,0.1c0,3,0,5.9,0,8.9v0.3c-0.2,2.4,0,4.8-0.1,7.2
	c0.1,0.5,0,0.9-0.1,1.4l-0.2,0.2c-0.1-0.1-0.2-0.2-0.2-0.4c-0.2-2.8-0.1-5.6-0.1-8.4c0-0.2,0-0.5,0-0.7c-0.1-2.1,0-4.2,0-6.4
	c0-1.5-0.1-1.6-1.5-1.6c-1.7,0-3.4,0-5.1,0c-0.5,0-1.2,0.2-1.4-0.6c0.4-0.2,0.8-0.3,1.3-0.2C415,386.4,417.5,386.4,420,386.4z"/>
<path class="st25" d="M429.2,395.5v-4.9c1.6,1.1,2.4,3.1,1.9,4.9C430.6,396,429.8,396,429.2,395.5L429.2,395.5z"/>
<path class="st17" d="M295.6,377.3c-0.5-0.7,0-1.5-0.3-2.2c-0.1,0.3-0.2,0.7-0.2,1c-0.2-2.5-0.5-5-0.7-7.5c-0.1-1.4-0.2-2.7-0.3-4
	c-0.1-0.5-0.1-1.1-0.1-1.6c0-0.1,0.2-0.2,0.3-0.2c0,0,0,0,0,0c0.4,0.5,0,1.2,0.2,1.7l1,11.3C295.9,376.3,295.9,376.9,295.6,377.3z"
	/>
<path class="st26" d="M406.2,377.2l-4.5,0c0-0.1,0-0.1-0.1-0.2c-0.2-0.8-0.2-1.7,0.1-2.5C403.3,375.4,404.8,376.2,406.2,377.2z"/>
<path class="st27" d="M291.9,338.7c-0.2-2.5-0.5-4.9-0.6-7.4c-0.2-1.1-0.3-2.2-0.3-3.3c-0.1-0.5,0.1-1,0.5-1.3
	c0.1,3.5,0.7,6.9,0.7,10.4C292.2,337.7,292.8,338.3,291.9,338.7z"/>
<path class="st28" d="M365.2,423.4c0,2.5,0,5-0.1,7.5c-0.1,0.4,0.1,0.8,0.5,0.9c0.1,0,0.2,0,0.4,0c2.3,0,4.6,0,6.9-0.1
	c-0.2,0.3-0.5,0.4-0.8,0.5c-1.2-0.4-2.5-0.1-3.8-0.2c-0.8-0.1-1.6-0.1-2.4,0c-0.9,0.1-1.1-0.3-1.1-1.1c0-2.2,0-4.5,0-6.7
	c0.1-0.5-0.1-1-0.4-1.4c0.3-0.2,0.6-0.4,1-0.3c2.4,0,4.8,0,7.2,0c0.3,0,0.6,0.1,0.8,0.2c0.1,0.1,0.2,0.3,0.1,0.4
	c-2.4,0.2-4.7,0-7.1,0.1C366.1,423.2,365.6,423.2,365.2,423.4z"/>
<path class="st29" d="M383.2,422.9c1.4,0.4,2.9,0,4.4,0.2c-1.4,1-2.9,1.8-4.5,2.4C383.2,424.7,383.2,423.8,383.2,422.9z"/>
<path class="st30" d="M311.3,473.5l0.3,0.3c-1.6,1.4-4,1.6-5.8,0.6C307.6,473.6,309.6,474.5,311.3,473.5z"/>
<path class="st31" d="M306.5,472.3c0.3,0,0.6,0.1,0.8,0.3c-1.8,1.1-3.6,0.8-5.5-0.2C303.5,471.8,305.1,472.6,306.5,472.3z"/>
<path class="st32" d="M429.3,395.6h1.9c-0.1,1.2-0.7,2.3-1.7,3.1C429,397.7,429.4,396.6,429.3,395.6z"/>
<path class="st33" d="M419.6,404.4c0,0.1,0,0.1,0,0.2l-0.8,0.4c-1.4-0.2-2.9-0.3-4.4-0.2c-1.1,0-2.3,0-3.5,0
	c-0.2-0.1-0.2-0.4-0.1-0.6c0,0,0,0,0.1-0.1c0.5-0.2,1-0.3,1.5-0.3c1.8,0,3.6,0,5.5,0C418.6,403.9,419.2,404.1,419.6,404.4z"/>
<path class="st34" d="M365.2,423.4c0.3-0.3,0.8-0.4,1.2-0.2c2.4,0,4.8,0,7.2,0c0.1-0.1,0.2,0,0.3,0.1c0,0,0,0,0,0.1
	c0,2.1,0,4.2,0,6.3c-0.1,0.4,0,0.8,0.1,1.2l0.3,0c-0.2,0.3-0.5,0.4-0.8,0.5c0-2.3,0-4.6,0-6.9c0.1-0.4-0.2-0.9-0.6-1
	c-0.1,0-0.3,0-0.4,0C370.1,423.4,367.7,423.4,365.2,423.4z"/>
<path class="st35" d="M383.2,368.2l5.9-0.1c0.4,0,0.9-0.1,1.3-0.1l0.7,0.4c-2.2,0-4.4,0-6.6,0c-0.9,0-1.2,0.3-1.1,1.2
	c0.1,2.5,0,5,0,7.5l0,0c-0.1,0.1-0.3,0-0.4-0.1c0,0,0,0,0,0c-0.2-1.4-0.3-2.9-0.2-4.3c0-1.1,0-2.1,0-3.2
	C382.8,369,382.9,368.6,383.2,368.2z"/>
<path class="st36" d="M294.4,362.9h-0.2c-0.1-0.1-0.2-0.1-0.2-0.2v-1.1c-0.3-0.7,0.1-1.5-0.2-2.2c0,0-0.1-0.1,0-0.1c0,0,0,0,0,0
	c-0.2-0.7,0.1-1.5-0.2-2.2v-0.9c-0.2-0.5,0-1-0.2-1.5l-0.1-1.6c0-0.6-0.4-1.3,0.3-1.8v0.6c0.3,0.7-0.1,1.4,0.2,2v0.4
	c0.2,0.7-0.1,1.4,0.2,2v1.1c0.2,0.5,0,1,0.2,1.5l0.1,1.4c0.2,0.6-0.1,1.4,0.2,2v0.4c0.1,0,0.1,0.1,0.1,0.2
	C294.5,362.9,294.4,362.9,294.4,362.9z"/>
<path class="st27" d="M292.7,342.3c0,0,0,0.1,0,0.1c0,0,0,0,0,0c0.2,0.7-0.1,1.5,0.2,2.2v0.9c0.2,0.5,0,1,0.2,1.5l0.1,1.6
	c0,0.6,0.4,1.3-0.3,1.8v-0.6c-0.3-0.7,0.1-1.5-0.2-2.3c0,0-0.1-0.1,0-0.1c0,0,0,0,0,0c-0.2-0.7,0.1-1.5-0.2-2.2v-0.9
	c-0.2-0.5,0-1-0.2-1.5l-0.1-1.6c0-0.6-0.4-1.3,0.3-1.8v0.6C292.8,340.8,292.4,341.6,292.7,342.3z"/>
<path class="st37" d="M331.4,455.6c0-0.5-0.3-1.3,0.2-1.5c0.7-0.4,1.6-0.3,2.2,0.2C333,454.8,332.2,455.2,331.4,455.6z"/>
<path class="st38" d="M419.9,404.5c0-2.5,0-5.1,0-7.6c-0.1-0.3,0-0.7,0.2-1c0,2.4,0,4.8,0,7.1c-0.1,0.4,0,0.9,0.2,1.3L419.9,404.5z"
	/>
<path class="st39" d="M420.2,386.6c0-0.1,0-0.1,0-0.2c-0.1-0.4,0.1-0.8,0.4-1c0.7,0.3,1.4,0.7,2,1.2L420.2,386.6z"/>
<path class="st40" d="M411,404.4l0.1,0.5c0.1,1.5-0.3,3,0.2,4.5c-0.1,0.2-0.3,0.3-0.5,0.3c0-1.5,0-3,0-4.6c-0.1-0.2-0.1-0.3-0.1-0.5
	C410.7,404.5,410.8,404.4,411,404.4C411,404.4,411,404.4,411,404.4z"/>
<path class="st41" d="M293,350.4c0.5-0.5,0.1-1.2,0.3-1.8c0.2,0.8,0.3,1.7,0.2,2.5c-0.5,0.5-0.1,1.2-0.3,1.8
	C292.9,352.1,292.9,351.3,293,350.4z"/>
<path class="st36" d="M292.5,339.4c-0.5,0.5-0.1,1.2-0.3,1.8c-0.2-0.8-0.3-1.6-0.3-2.5c0.5-0.4,0.2-1,0.3-1.6
	C292.5,337.9,292.5,338.6,292.5,339.4z"/>
<path class="st42" d="M401.9,414.9c-0.2-0.3-0.3-0.6-0.2-0.9h1.7L401.9,414.9z"/>
<path class="st43" d="M401.8,374.6l-0.1,2.5c-0.5-0.9-0.1-1.8-0.2-2.6L401.8,374.6z"/>
<path class="st44" d="M367,435.1c0.4-0.4,0.8-0.6,1.4-0.7c-0.2,0.4-0.6,0.8-1,0.9L367,435.1z"/>
<path class="st41" d="M293.5,356.9c0.4,0.7,0.1,1.5,0.2,2.2C293.4,358.4,293.4,357.7,293.5,356.9z"/>
<path class="st36" d="M292.7,347.6c0.5,0.7,0.2,1.5,0.2,2.3C292.7,349.1,292.6,348.4,292.7,347.6z"/>
<path class="st36" d="M292.5,345.2c0.5,0.7,0.1,1.5,0.2,2.2C292.5,346.7,292.5,345.9,292.5,345.2z"/>
<path class="st36" d="M292.9,344.7c-0.4-0.7-0.1-1.5-0.2-2.2C292.9,343.2,293,343.9,292.9,344.7z"/>
<path class="st36" d="M292.7,342.3c-0.5-0.7-0.2-1.5-0.2-2.2C292.7,340.8,292.8,341.5,292.7,342.3z"/>
<path class="st41" d="M293.6,359.3c0.5,0.7,0.2,1.5,0.2,2.2C293.7,360.8,293.6,360.1,293.6,359.3z"/>
<path class="st45" d="M294.4,362.2c-0.3-0.6-0.4-1.3-0.2-2C294.4,360.8,294.5,361.5,294.4,362.2z"/>
<path class="st41" d="M293.9,356.2c-0.4-0.6-0.1-1.3-0.2-2C293.9,354.8,294,355.5,293.9,356.2z"/>
<path class="st41" d="M293.7,353.8c-0.5-0.6-0.2-1.4-0.2-2C293.7,352.4,293.7,353.1,293.7,353.8z"/>
<path class="st45" d="M293.9,362.7l0.2,0.2v1.8C293.9,364,293.9,363.3,293.9,362.7z"/>
<path class="st45" d="M294.4,362.9l0.1-0.3c0.2,0.6,0.3,1.3,0.2,2C294.2,364.1,294.5,363.5,294.4,362.9z"/>
<path class="st41" d="M294.1,358.8c-0.2-0.5-0.3-1-0.2-1.5C294.1,357.8,294.2,358.3,294.1,358.8z"/>
<path class="st36" d="M292.3,342.8c0.2,0.5,0.3,1,0.2,1.5C292.3,343.8,292.2,343.3,292.3,342.8z"/>
<path class="st36" d="M293.1,347.1c-0.2-0.5-0.3-1-0.2-1.5C293.2,346,293.2,346.5,293.1,347.1z"/>
<path class="st41" d="M293.2,354.5c0.2,0.5,0.3,1,0.2,1.5C293.2,355.6,293.2,355,293.2,354.5z"/>
<path class="st46" d="M294.9,324h-0.2c0-0.3,0.1-0.6,0.4-0.8C295.2,323.4,295.1,323.8,294.9,324C294.9,324,294.9,324,294.9,324z"/>
<path class="st47" d="M392.4,404.7v-9.1l0.1-0.2c0.3-0.2,0.6-0.3,0.9-0.2c2.6,0,5.2-0.1,7.8,0.1c0.2,0,0.5,0.2,0.6,0.3
	c0.2,0.3,0.3,0.6,0.3,1c0,2.3,0,4.7,0,7c0,0.4-0.1,0.7-0.2,1c-0.2,0.2-0.4,0.3-0.6,0.3c-2.6,0.2-5.2,0.1-7.8,0.1
	C393,405,392.6,404.9,392.4,404.7z"/>
<path class="st48" d="M373.7,368.2h9.2v0.1c0.2,1.3,0.2,2.5,0.1,3.8c0.1,1.8,0,3.6-0.1,5.4c-3,0.5-6,0.5-8.9,0l-0.4-0.1
	c-0.3-0.3-0.4-0.7-0.4-1.1c0-2.3,0-4.6,0-6.9C373.2,368.9,373.4,368.5,373.7,368.2L373.7,368.2L373.7,368.2z"/>
<path class="st49" d="M383.2,413.8c-0.4,0.2-0.9,0.3-1.4,0.2c-2.6,0-5.2,0-7.8,0c-0.2,0-0.3-0.1-0.2-0.3c0-2.6,0.1-5.3,0-7.9
	c0-0.8,0.2-1.1,1.1-1.1c2.7,0.1,5.5-0.2,8.2,0.2c0.2,0.8,0.3,1.6,0.1,2.3C383.4,409.4,383.3,411.6,383.2,413.8z"/>
<path class="st50" d="M364.7,386.5c2.5,0,5.1-0.1,7.6,0c1.2,0,1.6-0.2,1.6-1.5c-0.1-2,0-4.1,0-6.1c-0.1-0.4,0-0.8,0.1-1.2
	c0.3,0.3,0.5,0.8,0.4,1.2c0,2.4,0.1,4.7,0,7.1c0,0.2,0,0.5-0.1,0.7c-0.3,2.4-0.1,4.7-0.1,7.1c0.1,0.6,0,1.2-0.3,1.7
	c-3,0.1-6.1,0.1-9.1,0c-0.3-0.3-0.4-0.8-0.4-1.2c0-2.2,0-4.4,0-6.6C364.3,387.3,364.4,386.9,364.7,386.5z"/>
<path class="st51" d="M383.2,386.4h9.1c0,0,0,0.1,0,0.1c0.3,0.3,0.4,0.8,0.4,1.2c0,2.2,0,4.4,0,6.6c0.1,0.4-0.1,0.9-0.4,1.2
	c0,0,0,0.1,0,0.1l-9.1-0.1c-0.1-0.1-0.2-0.2-0.2-0.4c-0.1-2.8-0.1-5.6,0-8.4C383,386.6,383.1,386.5,383.2,386.4z"/>
<path class="st52" d="M346,395.5c0-2.6,0-5.3,0-7.9c0-0.8,0.2-1.2,1.1-1.2c2.7,0.1,5.3,0,8,0c0.3,0.4,0.4,0.8,0.3,1.2
	c0,2.2,0,4.4,0,6.6c0,1.3-0.1,1.4-1.5,1.4c-2.3,0-4.6,0-7,0C346.7,395.7,346.3,395.7,346,395.5z"/>
<path class="st53" d="M364.7,386.5v9c-3,0.1-6,0.1-9.1,0c-0.2-0.2-0.3-0.6-0.3-0.9c0-2.4,0-4.9,0-7.3c0-0.3,0.1-0.6,0.3-0.9
	C358.7,386.4,361.7,386.3,364.7,386.5z"/>
<path class="st54" d="M373.6,422.9h-9.1c0-0.1,0-0.2,0-0.2c-0.3-0.3-0.4-0.7-0.4-1.1c0-2.1,0-4.1,0-6.2c0-0.4,0.1-0.8,0.4-1.1
	c0.1-0.6,0.5-0.5,0.9-0.5h8.2c0.3,0.4,0.4,0.8,0.4,1.2c0,2.3,0,4.5,0,6.8C374,422.2,373.9,422.6,373.6,422.9z"/>
<path class="st55" d="M392.4,404.7l8.8,0.1c0.2,0.3,0.3,0.7,0.3,1.1c0,2.3,0,4.5,0,6.8c0,1-0.4,1.3-1.3,1.2c-2.5,0-5,0-7.5,0
	c-0.7-0.2-0.5-0.7-0.5-1.2c0-2.5,0-5.1-0.1-7.6c0,0,0-0.1,0-0.2c0,0,0.1-0.1,0.1-0.1L392.4,404.7z"/>
<path class="st56" d="M373.7,368.2c0,3,0,6.1-0.1,9.1c-2.6,0-5.3,0-7.9,0c-0.7,0-1.1-0.1-1.1-1c0-2.4,0-4.9,0-7.3c0-0.4-0.1-1,0.6-1
	C368.1,367.9,370.9,368,373.7,368.2z"/>
<path class="st57" d="M374.1,386.2l-0.1-8.5c0-0.1,0-0.1,0-0.2c3-0.2,5.9-0.2,8.9,0c0.2,0.3,0.3,0.6,0.2,0.9c0,2.3,0,4.6,0,6.9
	c0,0.3,0,0.6-0.2,0.9c-0.3,0.2-0.7,0.4-1.1,0.3c-2.2,0-4.4,0-6.7,0C374.8,386.6,374.4,386.5,374.1,386.2z"/>
<path class="st58" d="M364.5,414.3c0,2.8,0,5.6,0,8.4c-2.6,0-5.2,0-7.9,0.1c-0.4,0.1-0.7-0.1-0.8-0.5c0-0.1,0-0.2,0-0.3
	c0-2.3,0-4.6,0-6.9c0-0.7,0.3-0.8,0.9-0.8C359.3,414.2,361.9,414.3,364.5,414.3z"/>
<path class="st59" d="M391.9,400.1c0,1.2,0,2.3,0,3.5c0.1,0.4-0.1,0.7-0.5,0.8c-0.1,0-0.2,0-0.3,0c-2.3,0-4.6,0-6.8,0
	c-0.4,0.1-0.8-0.2-0.9-0.6c0-0.1,0-0.2,0-0.3c0-2.3,0-4.6,0-6.8c-0.1-0.4,0.1-0.8,0.5-0.9c0.1,0,0.2,0,0.4,0c2.2,0,4.5,0,6.7,0
	c0.4-0.1,0.7,0.1,0.8,0.5c0,0.1,0,0.2,0,0.3C391.8,397.8,391.9,398.9,391.9,400.1z"/>
<path class="st5" d="M360.1,376.4c-1,0-2,0-3,0c-0.3,0.1-0.7-0.1-0.8-0.5c0-0.1,0-0.2,0-0.3c0-2,0-4.1,0-6.1c0-0.7,0.3-0.8,0.9-0.8
	c2,0,4,0,6,0c0.4-0.1,0.7,0.1,0.8,0.5c0,0.1,0,0.2,0,0.3c0,2,0,4,0,6c0,0.7-0.3,0.9-0.9,0.8C362,376.3,361,376.4,360.1,376.4z"/>
<path class="st60" d="M365.9,409.2c0-0.9,0-1.8,0-2.6c-0.1-0.4,0.1-0.7,0.5-0.9c0.1,0,0.2,0,0.3,0c1.8,0,3.6,0,5.4,0
	c0.4-0.1,0.7,0.2,0.8,0.5c0,0.1,0,0.2,0,0.3c0,1.8,0,3.5,0,5.3c0.1,0.4-0.1,0.7-0.5,0.9c-0.1,0-0.2,0-0.3,0c-1.8,0-3.6,0-5.4,0
	c-0.3,0.1-0.7-0.1-0.8-0.5c0-0.1,0-0.2,0-0.3C365.9,411,365.9,410.1,365.9,409.2z"/>
<path class="st61" d="M344.8,391.3c-0.1,0.9,0.5,2.3-0.2,3c-0.7,0.7-2.1,0.2-3.1,0.2s-2.5,0.5-3.2-0.2s-0.2-2.1-0.2-3.1
	c0-1.1-0.5-2.6,0.2-3.3s2.1-0.2,3.2-0.2c1.1,0,2.4-0.5,3.1,0.2s0.1,2,0.2,3C344.8,391,344.8,391.1,344.8,391.3z"/>
<path class="st62" d="M372.1,381.8c0,3,0,3-3.1,3h-1.5c-1.5,0-1.5,0-1.5-1.6c0-1.2,0-2.4,0-3.6c-0.1-0.4,0.1-0.9,0.5-1
	c0.1-0.1,0.3-0.1,0.5,0c1.4,0,2.9,0,4.3,0c0.6,0,1,0.2,0.9,0.9S372.1,381,372.1,381.8z"/>
<path class="st63" d="M371.9,363.8c0,2.5,0,2.5-2.5,2.5c-2.8,0-2.8,0-2.8-2.8c0-2.5,0-2.5,2.6-2.5C371.8,361,371.9,361,371.9,363.8z
	"/>
<path class="st64" d="M360.1,403c-2.6,0-2.6,0-2.6-2.7s0-2.6,2.6-2.6c2.6,0,2.7,0,2.7,2.6S362.8,403,360.1,403z"/>
<path class="st65" d="M321.2,455.1c0-2,0-2,2-2s2,0,2,2s0,2.1-2.2,2.1C321.2,457.2,321.2,457.2,321.2,455.1z"/>
<path class="st66" d="M324.7,354.5c0,2,0.3,1.7-2.1,1.7c-1.8,0-1.5,0.2-1.5-1.9c0-2.1,0-1.7,2-1.7
	C324.9,352.6,324.6,352.5,324.7,354.5z"/>
<path class="st67" d="M315.5,400.4c0,1.7,0,1.7-2,1.7c-1.6,0-1.6,0-1.6-2c0-1.5,0-1.5,2.1-1.5C315.7,398.7,315.5,398.4,315.5,400.4z
	"/>
<path class="st68" d="M341.8,426.2c1.9,0,1.6-0.3,1.6,1.9c0,1.8,0.2,1.5-1.9,1.5c-1.8,0-1.5,0.3-1.5-1.9
	C340,425.9,339.8,426.2,341.8,426.2z"/>
<path class="st69" d="M361.5,409.5c0.5,1.6-0.6,1.3-1.5,1.4c-1.4,0.2-1.3-0.7-1.4-1.6c-0.1-1.3,0.6-1.3,1.6-1.4
	C361.5,407.9,362,408.4,361.5,409.5z"/>
<path class="st70" d="M313.9,408.1c1.3-0.4,1.3,0.4,1.4,1.4c0.1,1.2-0.5,1.4-1.5,1.4c-1.2,0-1.4-0.5-1.4-1.6
	C312.3,408.1,312.8,407.8,313.9,408.1z"/>
<path class="st71" d="M355.7,386.5v9.1c-0.3,0.2-0.7,0.3-1.1,0.3H347c-0.4,0.1-0.7,0-0.9-0.3l8.5,0.1c0.3,0.1,0.6-0.2,0.7-0.5
	c0-0.1,0-0.2,0-0.3c0-2.8,0-5.6-0.1-8.4L355.7,386.5z"/>
<path class="st72" d="M323.3,380.7c0.9-0.2,1.4,0,1.4,1.1c0,1.1-0.3,1.3-1.3,1.3c-1,0-1.4-0.3-1.4-1.4S322.5,380.6,323.3,380.7z"/>
<path class="st73" d="M315.1,363.5c0.2,0.9-0.2,1-1,1s-1.1-0.3-1.1-1.2c0-1,0.5-1,1.2-1C315.1,362.3,315.2,362.8,315.1,363.5z"/>
<path class="st74" d="M373.6,422.9c0-3,0-6.1,0-9.1h0.3l0.2,0.3c0,0.1,0,0.1,0,0.2c0.3,0.4,0.4,0.9,0.4,1.3c0,1.9,0,3.9,0,5.8
	c0,0.6-0.2,1.3-0.6,1.7h-0.2C373.6,423.1,373.6,423,373.6,422.9z"/>
<path class="st75" d="M383.1,395.3l0.1,0.2c-3.1,0.2-6.2,0.1-9.3,0c0-2.5,0-5.1,0-7.6c-0.1-0.4,0-0.9,0.2-1.2l0.2,0.1
	c0.3,0.8,0.3,1.7,0.2,2.6c0,1.4,0,2.8,0,4.2c-0.1,0.6,0.2,1.2,0.8,1.3c0.2,0,0.4,0,0.5,0c1.8,0,3.5,0,5.3,0c0.6,0,1.1,0,1.7,0.1
	C382.8,395.1,383,395.2,383.1,395.3z"/>
<path class="st76" d="M392.1,404.9v0.2c-2.5,0-5,0-7.5,0c-0.5-0.1-1,0.1-1.1,0.6c0,0.2,0,0.3,0,0.5c0,2.1,0,4.2,0,6.3
	c0.1,0.4,0,0.9-0.2,1.2c0-2.9,0-5.9,0-8.8L392.1,404.9z"/>
<path class="st77" d="M312.8,354.1c-0.2-0.8,0.1-1,1-1.1c1,0,1,0.4,1,1.2s-0.3,1-1.1,1C313,355.2,312.7,354.9,312.8,354.1z"/>
<path class="st78" d="M359,427.9c-0.1-0.7,0.1-1.1,0.9-1.1c0.5-0.1,0.9,0.2,1,0.7c0,0.1,0,0.3,0,0.4c0,0.7-0.1,1.1-0.9,1
	C359.1,428.8,358.8,428.6,359,427.9z"/>
<path class="st79" d="M324.1,363.7c0.2,0.4-0.1,0.9-0.5,1.1c-0.2,0.1-0.3,0.1-0.5,0c-0.4,0.1-0.8-0.1-1-0.6c0-0.1,0-0.3,0-0.4
	c0-0.7,0.1-1,0.9-1C323.7,362.9,324.3,362.9,324.1,363.7z"/>
<path class="st80" d="M361.1,436.8c0.2,0.9-0.3,1-1,1c-0.5,0.1-0.9-0.2-1-0.6c0-0.1,0-0.2,0-0.4c0-0.9,0.4-0.9,1.1-0.9
	c0.4-0.1,0.8,0,0.9,0.4C361.2,436.4,361.2,436.6,361.1,436.8z"/>
<path class="st4" d="M322.9,400.9c-0.8,0.2-0.9-0.3-0.9-1s0.4-0.8,1-0.8c0.8,0,0.9,0.2,0.9,1S323.6,400.9,322.9,400.9z"/>
<path class="st81" d="M323.3,408.6c0.7-0.1,0.9,0.2,0.9,0.9c0,0.5,0.1,1-0.8,1s-1-0.2-1-0.9C322.5,408.9,322.5,408.4,323.3,408.6z"
	/>
<path class="st82" d="M351.5,418.5c0.1,0.8-0.3,0.8-0.9,0.8s-0.8-0.3-0.8-0.8c-0.1-0.4,0.1-0.8,0.5-0.9c0.1,0,0.2,0,0.4,0
	C351.3,417.6,351.6,417.9,351.5,418.5z"/>
<path class="st83" d="M313.9,446.9c-0.7,0.1-1-0.1-1-0.8s0.1-0.9,0.8-0.9c0.7,0,1,0,1,0.8C314.6,446.6,314.6,447.1,313.9,446.9z"/>
<path class="st84" d="M342.4,445.8c0.1,0.7-0.1,1-0.8,1c-0.4,0.1-0.8-0.1-0.8-0.5c0-0.1,0-0.2,0-0.3c0-0.6,0.2-1,0.9-0.9
	S342.5,445.1,342.4,445.8z"/>
<path class="st85" d="M382.9,377.6h-8.9c0-0.1,0-0.1,0-0.2h8.9c0.1-0.1,0.2-0.1,0.3,0c0,0,0,0,0,0
	C383.3,377.5,383.2,377.6,382.9,377.6z"/>
<path class="st86" d="M378.4,400.9c-0.3,0.1-0.6,0-0.8-0.3c0-0.1,0-0.2,0-0.3c-0.1-0.4,0.2-0.7,0.6-0.8c0.1,0,0.2,0,0.2,0
	c0.6,0,0.7,0.3,0.7,0.8c0.1,0.3-0.1,0.6-0.4,0.6C378.7,400.9,378.5,400.9,378.4,400.9z"/>
<path class="st87" d="M322.9,436.6c0.3,0,0.5,0.1,0.5,0.4c0,0.2-0.2,0.4-0.5,0.4c-0.2,0-0.4-0.1-0.4-0.3c0,0,0,0,0-0.1
	C322.5,436.8,322.6,436.6,322.9,436.6C322.8,436.6,322.9,436.6,322.9,436.6z"/>
<path class="st88" d="M360.2,363c0.2,0,0.4,0.1,0.4,0.3c0,0,0,0.1,0,0.1c0,0.2-0.2,0.4-0.3,0.4c0,0,0,0,0,0c-0.2,0-0.4-0.1-0.4-0.3
	c0,0,0-0.1,0-0.1C359.8,363.2,360,363,360.2,363C360.2,363,360.2,363,360.2,363z"/>
<path class="st89" d="M314,464.8c-0.2,0.1-0.4-0.1-0.5-0.3c0,0,0-0.1,0-0.1c0-0.2,0.1-0.4,0.3-0.4c0,0,0.1,0,0.1,0
	c0.2,0,0.4,0.1,0.4,0.3c0,0,0,0,0,0.1C314.3,464.5,314.3,464.7,314,464.8z"/>
<path class="st90" d="M332.8,391.1c0,0.2-0.1,0.3-0.3,0.3c0,0,0,0-0.1,0c-0.2,0.1-0.3,0-0.4-0.2c0,0,0-0.1,0-0.1
	c-0.1-0.2,0-0.4,0.2-0.5c0,0,0.1,0,0.1,0C332.6,390.7,332.8,390.9,332.8,391.1C332.8,391.1,332.8,391.1,332.8,391.1z"/>
<path class="st91" d="M392.3,395.5c0-3,0-6,0-9h8.8c0.3,0.2,0.5,0.6,0.4,0.9c0,2.5,0,4.9,0,7.4c0,0.3-0.1,0.6-0.2,0.8L392.3,395.5z"
	/>
<path class="st92" d="M401.3,395.5c0-2.6,0-5.2,0-7.8c0.1-0.4,0-0.9-0.2-1.3h0.8c0.1,0.1,0.1,0.3,0.2,0.4c-0.1,2.3,0,4.7-0.1,7
	c0,0.5,0,1-0.1,1.4c-0.1,0.1-0.2,0.2-0.3,0.3L401.3,395.5z"/>
<path class="st93" d="M420,386.4c-0.4,0.3-0.8,0.3-1.2,0.2c-2.5,0-5,0-7.5,0c-0.1,0.1-0.2,0.1-0.3,0.1c-0.2,0-0.4-0.2-0.5-0.4
	l0.1-0.2h8.1C419.1,386.1,419.6,386.2,420,386.4z"/>
<path class="st94" d="M410.5,386.4l0.5,0.2c-0.1,0.2-0.4,0.3-0.6,0.3c-2.5,0.2-5,0.1-7.5,0c-0.4,0-0.7-0.1-1-0.3v-0.3L410.5,386.4
	L410.5,386.4z"/>
<path class="st95" d="M373.8,423.1c0.4-1.6,0.1-3.3,0.2-5c0.1-1.3,0-2.6,0.1-3.9c2.6,0,5.2,0,7.9,0c0.4-0.1,0.9,0.2,1,0.6
	c0,0.1,0,0.3,0,0.4c0,2.5,0,5.1,0,7.6c-2.5,0-5,0-7.5,0c-1,0-1.4,0.2-1.4,1.3c0.1,2.2,0,4.4,0,6.6c-0.3-0.5-0.4-1-0.2-1.6
	C373.8,427.2,373.8,425.2,373.8,423.1z"/>
<path class="st96" d="M392.6,413.9c2.5-0.2,4.9-0.1,7.4-0.1c0.9,0,1.3-0.2,1.2-1.2c-0.1-2.6-0.1-5.3-0.1-7.9l0.5-0.1
	c0.1-0.1,0.2-0.1,0.3,0c0.1,0.1,0.1,0.2,0,0.3c-0.2,0.4-0.3,0.8-0.2,1.3c0,2.6,0,5.1-0.1,7.7c-1,0.2-2,0.3-3,0.2
	C396.7,414,394.7,414,392.6,413.9L392.6,413.9L392.6,413.9z"/>
<path class="st97" d="M382.9,377.6l0.2-0.3c-0.1-0.1-0.1-0.1,0-0.2c0,0,0.1,0,0.1,0h0.2c0,2.7,0,5.3,0,8c0.1,0.4,0,0.9-0.2,1.3l0,0
	c-0.2,0.1-0.3,0-0.2-0.2L382.9,377.6z"/>
<path class="st98" d="M401.9,404.9c0-0.1,0-0.1,0-0.2c0.3-0.3,0.6-0.4,1-0.4c2.5,0,5-0.1,7.5,0.1c0.2,0,0.3,0.1,0.4,0.2v0.5
	c-0.4-0.3-0.9-0.3-1.4-0.2L401.9,404.9z"/>
<path class="st99" d="M383.2,377.1c0,0.1,0,0.2-0.1,0.2h-0.3c0-3,0-6.1,0-9.1h0.3C383.2,371.2,383.2,374.1,383.2,377.1z"/>
<path class="st100" d="M410.8,404.6h-0.2c-0.2-0.2-0.2-0.4-0.2-0.6c0.1-2.3,0-4.5,0.1-6.8c0-1.5,0.2-1.7,1.8-1.7c2,0,4.1,0,6.1,0
	c0.5-0.1,1,0,1.4,0.3c0,2.9,0,5.8,0,8.6H411L410.8,404.6z"/>
<path class="st101" d="M410.5,386.7l0.5-0.1c0.1,0,0.2,0.1,0.2,0.1c1.2,0.5,2.5,0.1,3.8,0.2c1.3,0.1,2.4,0,3.6,0
	c0.4-0.1,0.9,0.2,1,0.6c0,0.1,0,0.3,0,0.4c0,2.5,0,5,0,7.4c-0.4,0.2-0.8,0.3-1.3,0.2h-6c-1.6,0-1.7-0.1-1.7-1.7c0-1.8,0-3.5,0-5.3
	c0-0.5,0-1-0.1-1.4C410.4,387,410.5,386.8,410.5,386.7z"/>
<path class="st102" d="M410.7,386.9c0.6,0.2,0.3,0.8,0.3,1.1c0,2,0.1,4.1,0,6.1c0,1,0.3,1.2,1.2,1.2c2.5,0,4.9,0,7.4,0v0.5
	c-2.5,0-5.1,0-7.6,0c-1,0-1.2,0.3-1.3,1.3c0.1,2.4,0.1,4.8-0.1,7.1c-0.4-0.3-0.6-0.9-0.5-1.4c0-2.3,0-4.6,0-6.9c0-0.2,0-0.5,0-0.7
	c-0.1-2.3,0-4.6,0-6.9C410.1,387.8,410.2,387.2,410.7,386.9z"/>
<path class="st103" d="M410.5,395.8c0,2.8,0.1,5.6,0.1,8.4l-0.1,0.4l-8.7,0.1l-0.2-0.1l0-9h0.1c0.1-0.1,0.3-0.1,0.4-0.1
	c2.3,0,4.6,0,7,0C409.6,395.4,410.1,395.5,410.5,395.8z"/>
<path class="st104" d="M383,386.2l0.2,0.2c0,3-0.1,5.9-0.1,8.9h-0.1c-0.3-0.5-0.5-1-0.4-1.6c0-1.7,0-3.4,0-5.1
	c0-1.4-0.1-1.5-1.5-1.5c-1.8,0-3.6,0-5.4,0c-0.6,0.1-1.1-0.1-1.6-0.4l0,0l0.1-0.5L383,386.2z"/>
<path class="st105" d="M374.1,386.7c2.6,0,5.1,0,7.7,0c1,0,1.3,0.4,1.2,1.3c-0.1,2.4,0,4.9,0,7.3c-2.6,0-5.3,0-7.9,0.1
	c-0.4,0.1-0.9-0.1-1-0.5c-0.1-0.2-0.1-0.3,0-0.5C374.1,391.8,374.1,389.2,374.1,386.7z"/>
<path class="st106" d="M401.9,395.6h-0.2c0-2.5,0-5,0.1-7.5c-0.1-0.5,0-1,0.2-1.4h8.6c0,0.1,0.1,0.1,0.1,0.2c0,2.8-0.1,5.6-0.1,8.4
	c-0.4,0.2-0.9,0.3-1.4,0.2L401.9,395.6L401.9,395.6z"/>
<path class="st107" d="M401.9,395.6c0.4-0.3,0.8-0.3,1.2-0.2c2.5,0,4.9,0,7.4,0v0.5c-2.5,0-4.9,0-7.4,0
	C402.7,396,402.3,395.9,401.9,395.6z"/>
<path class="st0" d="M468.5,455V349.6h43.2c16.4,0,24.6,10.2,24.6,30.7c0.1,4.6-0.4,9.1-1.5,13.5c-0.7,3.1-1.9,6.1-3.6,8.8
	c-1.3,2-3.1,3.6-5.1,4.9c-2.9,1.7-6.2,2.8-9.7,3l22.6,44.5h-8.9l-22.5-44.2c-1.3,0-6.8-0.3-16.4-0.9c-9.6-0.6-14.5-0.9-14.5-1V455
	L468.5,455L468.5,455z M528,379.6c0.1-3.8-0.4-7.6-1.4-11.2c-0.9-3.2-2.2-5.5-3.8-6.9c-3.2-2.5-7.1-3.7-11.1-3.6h-35V402h35
	c6.5,0,10.9-1.7,13-5.2C526.9,393.3,528,387.6,528,379.6z"/>
<path class="st0" d="M556.2,437.2v-69c0-6.6,1.7-11.4,5-14.3c3.3-2.9,7.6-4.5,12-4.4h1.1l44.5,2v6.2h-44.5c-3.7,0-6.3,0.9-7.8,2.7
	c-1.4,1.8-2.2,4.4-2.2,7.9v30.1l48.7,1.1v6.3l-48.7,1.1v30.2c0,4.5,1.2,7.4,3.7,8.6c2.4,1,5,1.4,7.6,1.3h43.1v6l-43.1,2.2h-3
	c-1.5,0-3.1-0.2-4.6-0.5c-2-0.4-4-1.2-5.8-2.2C558.3,450.1,556.2,445,556.2,437.2z"/>
<path class="st0" d="M638.6,455V349.6h8.3l58.6,90v-90h8.2V455h-8.2l-58.8-90v90H638.6L638.6,455z"/>
<path class="st0" d="M735.6,455V349.6h38.2c8,0,14.5,1.8,19.6,5.3c4.9,3.3,8.7,7.8,11.2,13.1c2.4,4.9,4,10.1,5,15.4
	c1,6.2,1.5,12.4,1.6,18.7c0,5.1-0.4,10.2-1.2,15.2c-0.8,4.8-2.2,9.5-4.1,14c-1.8,4.3-4.1,8.4-7.1,12.1c-2.9,3.5-6.5,6.4-10.7,8.4
	c-4.5,2.2-9.4,3.2-14.4,3.2L735.6,455L735.6,455z M743.8,446.5h30c4.7,0.1,9.3-1.2,13.2-3.7c3.9-2.6,7-6,9.2-10.1
	c4.5-8.4,6.8-18.5,6.8-30.1c0-29.9-9.7-44.8-29.2-44.8h-30L743.8,446.5L743.8,446.5z"/>
<path class="st0" d="M828,437.2v-69c0-6.6,1.7-11.4,5-14.3c3.3-2.9,7.6-4.5,12-4.4h1.2l44.5,2v6.2h-44.5c-3.7,0-6.3,0.9-7.8,2.7
	c-1.4,1.8-2.2,4.4-2.2,7.9v30.1l48.7,1.1v6.3l-48.7,1.1v30.2c0,4.5,1.2,7.4,3.7,8.6c2.4,1,5,1.4,7.6,1.3h43.1v6l-43.1,2.2h-3
	c-1.5,0-3.1-0.2-4.6-0.5c-2-0.4-4-1.2-5.8-2.2C830,450.2,828,445,828,437.2z"/>
<path class="st0" d="M907,455V349.6h43.2c16.4,0,24.6,10.2,24.6,30.7c0.1,4.6-0.4,9.1-1.5,13.5c-0.7,3.1-1.9,6.1-3.6,8.8
	c-1.3,2-3.1,3.6-5.1,4.9c-2.9,1.7-6.2,2.8-9.7,3l22.6,44.5h-8.9l-22.5-44.2c-1.3,0-6.8-0.3-16.4-0.9c-9.6-0.6-14.5-0.9-14.5-1V455
	L907,455L907,455z M966.5,379.6c0.1-3.8-0.4-7.6-1.4-11.2c-0.9-3.2-2.2-5.5-3.8-6.9c-3.2-2.5-7.1-3.7-11.1-3.6h-35V402h35
	c6.5,0,10.9-1.7,13-5.2C965.3,393.3,966.4,387.6,966.5,379.6L966.5,379.6z"/>
</svg>
