<svg id="Layer_1" data-name="Layer 1" xmlns="http://www.w3.org/2000/svg" xmlns:xlink="http://www.w3.org/1999/xlink" viewBox="0 0 166 166"><defs><style>.cls-1,.cls-4,.cls-5{fill:none;}.cls-1{stroke:#f2f2f2;}.cls-1,.cls-3,.cls-4,.cls-5,.cls-6,.cls-8{stroke-miterlimit:10;}.cls-2{fill:#00e676;}.cls-3,.cls-4,.cls-6,.cls-8{stroke:#666;}.cls-3,.cls-4,.cls-5,.cls-6,.cls-8{stroke-width:2px;}.cls-3{fill:url(#linear-gradient);}.cls-5{stroke:#00e676;}.cls-6{fill:url(#linear-gradient-2);}.cls-7{fill:#666;}.cls-8{fill:url(#linear-gradient-3);}</style><linearGradient id="linear-gradient" x1="52.3" y1="88.4" x2="115" y2="88.4" gradientTransform="matrix(1, 0, 0, -1, 0, 168)" gradientUnits="userSpaceOnUse"><stop offset="0.92" stop-color="#fff"/><stop offset="0.92" stop-color="#10e87f"/><stop offset="1" stop-color="#00e676"/></linearGradient><linearGradient id="linear-gradient-2" x1="355.74" y1="906.75" x2="366.31" y2="907.49" gradientTransform="matrix(0.94, 0.34, 0.34, -0.94, -535.52, 815.42)" gradientUnits="userSpaceOnUse"><stop offset="0.66" stop-color="#fff"/><stop offset="0.66" stop-color="#10e87f"/><stop offset="1" stop-color="#00e676"/></linearGradient><linearGradient id="linear-gradient-3" x1="63.88" y1="102.74" x2="70.59" y2="91.12" gradientTransform="matrix(1, 0, 0, -1, 0, 168)" gradientUnits="userSpaceOnUse"><stop offset="0.69" stop-color="#fff"/><stop offset="0.69" stop-color="#10e87f"/><stop offset="1" stop-color="#00e676"/></linearGradient></defs><title>onlyFill-icon_001</title><circle id="_Path_" data-name="&lt;Path&gt;" class="cls-1" cx="83" cy="83" r="83"/><path id="_Path_2" data-name="&lt;Path&gt;" class="cls-2" d="M91.7,103.8v3.5c0,1.4-1.7,2.5-2.6,2.9v-9.3C90,101.3,91.7,102.4,91.7,103.8Z"/><path id="_Path_3" data-name="&lt;Path&gt;" class="cls-2" d="M108.9,60V80.2c0,1.6-1.7,2.9-2.6,3.3V56.7C107.1,57.1,108.9,58.5,108.9,60Z"/><path id="_Path_4" data-name="&lt;Path&gt;" class="cls-3" d="M56.3,118.1H111a4,4,0,0,0,4-4v-69a4,4,0,0,0-4-4H56.3a4,4,0,0,0-4,4v69A4,4,0,0,0,56.3,118.1Z"/><line id="_Path_5" data-name="&lt;Path&gt;" class="cls-4" x1="58" y1="51" x2="109" y2="51"/><line id="_Path_6" data-name="&lt;Path&gt;" class="cls-4" x1="58" y1="89" x2="92" y2="89"/><line id="_Path_7" data-name="&lt;Path&gt;" class="cls-4" x1="58" y1="95" x2="92" y2="95"/><line id="_Path_8" data-name="&lt;Path&gt;" class="cls-5" x1="89" y1="110" x2="103" y2="110"/><line id="_Path_9" data-name="&lt;Path&gt;" class="cls-4" x1="58" y1="57" x2="109" y2="57"/><line id="_Path_10" data-name="&lt;Path&gt;" class="cls-4" x1="87" y1="64" x2="109" y2="64"/><line id="_Path_11" data-name="&lt;Path&gt;" class="cls-4" x1="87" y1="70" x2="109" y2="70"/><line id="_Path_12" data-name="&lt;Path&gt;" class="cls-4" x1="87" y1="76" x2="109" y2="76"/><line id="_Path_13" data-name="&lt;Path&gt;" class="cls-4" x1="87" y1="82" x2="109" y2="82"/><line id="_Path_14" data-name="&lt;Path&gt;" class="cls-4" x1="47" y1="73" x2="47" y2="88"/><line id="_Path_15" data-name="&lt;Path&gt;" class="cls-4" x1="80" y1="122" x2="60" y2="122"/><line id="_Path_16" data-name="&lt;Path&gt;" class="cls-4" x1="47" y1="93" x2="47" y2="99"/><g id="_Group_" data-name="&lt;Group&gt;"><polygon id="_Path_17" data-name="&lt;Path&gt;" class="cls-6" points="114.2 102.3 104.5 98.8 116.4 70.9 122.8 73.2 114.2 102.3"/><g id="_Group_2" data-name="&lt;Group&gt;"><path id="_Path_18" data-name="&lt;Path&gt;" class="cls-7" d="M114.8,103.6a12,12,0,0,0-6.5,6.2l-4.2-1.5a12.46,12.46,0,0,0-1-8.9Z"/></g><polygon id="_Path_19" data-name="&lt;Path&gt;" class="cls-2" points="107.5 110.7 103.6 111 104.6 108.4 107.9 109.6 107.5 110.7"/></g><g id="_Group_3" data-name="&lt;Group&gt;"><polygon id="_Path_20" data-name="&lt;Path&gt;" class="cls-8" points="63.9 65.3 77.3 73 63.9 80.8 63.9 65.3"/></g></svg>