<svg id="Layer_1" data-name="Layer 1" xmlns="http://www.w3.org/2000/svg" xmlns:xlink="http://www.w3.org/1999/xlink" viewBox="0 0 166 166"><defs><style>.cls-1,.cls-3{fill:none;}.cls-1{stroke:#f2f2f2;}.cls-1,.cls-3,.cls-4{stroke-miterlimit:10;}.cls-2{fill:#00e676;}.cls-3,.cls-4{stroke:#666;stroke-width:2px;}.cls-3{stroke-linecap:round;}.cls-4{fill:url(#linear-gradient);}</style><linearGradient id="linear-gradient" x1="74.92" y1="96.21" x2="81.61" y2="84.64" gradientTransform="matrix(1, 0, 0, -1, 0, 168)" gradientUnits="userSpaceOnUse"><stop offset="0.69" stop-color="#fff"/><stop offset="0.69" stop-color="#10e87f"/><stop offset="1" stop-color="#00e676"/></linearGradient></defs><title>onlyFill-icon_002</title><circle id="_Path_" data-name="&lt;Path&gt;" class="cls-1" cx="83" cy="83" r="83"/><rect id="_Path_2" data-name="&lt;Path&gt;" class="cls-2" x="101.4" y="93.6" width="3.5" height="19.7" transform="translate(-42.94 103.24) rotate(-45)"/><path id="_Path_3" data-name="&lt;Path&gt;" class="cls-2" d="M102.8,79.8a22.19,22.19,0,0,1-42.3,9.4,22.22,22.22,0,0,0,40-13.3,21.23,21.23,0,0,0-2.1-9.4A22.56,22.56,0,0,1,102.8,79.8Z"/><circle id="_Path_4" data-name="&lt;Path&gt;" class="cls-3" cx="80.2" cy="79.5" r="22.7"/><path id="_Path_5" data-name="&lt;Path&gt;" class="cls-3" d="M62.1,55.7a30.62,30.62,0,0,1,42.8,6.2"/><rect id="_Path_6" data-name="&lt;Path&gt;" class="cls-3" x="99.88" y="91.39" width="9.2" height="21.5" transform="translate(-41.63 103.8) rotate(-45)"/><line id="_Path_7" data-name="&lt;Path&gt;" class="cls-3" x1="116.6" y1="128.6" x2="103.9" y2="115.9"/><line id="_Path_8" data-name="&lt;Path&gt;" class="cls-3" x1="100.3" y1="112.3" x2="95.4" y2="107.4"/><g id="_Group_" data-name="&lt;Group&gt;"><polygon id="_Path_9" data-name="&lt;Path&gt;" class="cls-4" points="74.9 71.8 88.3 79.5 74.9 87.2 74.9 71.8"/></g></svg>