<svg id="Layer_1" data-name="Layer 1" xmlns="http://www.w3.org/2000/svg" xmlns:xlink="http://www.w3.org/1999/xlink" viewBox="0 0 166 166"><defs><style>.cls-1,.cls-4{fill:none;}.cls-1{stroke:#f2f2f2;}.cls-1,.cls-2,.cls-4,.cls-5{stroke-miterlimit:10;}.cls-2,.cls-4,.cls-5{stroke:#666;stroke-width:2px;}.cls-2{fill:url(#linear-gradient);}.cls-3{fill:#00e676;}.cls-4,.cls-5{stroke-linecap:round;}.cls-5{fill:#fff;}</style><linearGradient id="linear-gradient" x1="42.4" y1="84.5" x2="126.7" y2="84.5" gradientTransform="matrix(1, 0, 0, -1, 0, 168)" gradientUnits="userSpaceOnUse"><stop offset="0.92" stop-color="#fff"/><stop offset="0.92" stop-color="#10e87f"/><stop offset="1" stop-color="#00e676"/></linearGradient></defs><title>onlyFill-icon_003</title><circle id="_Path_" data-name="&lt;Path&gt;" class="cls-1" cx="83" cy="83" r="83"/><path id="_Path_2" data-name="&lt;Path&gt;" class="cls-2" d="M122.7,112.7H46.4a4,4,0,0,1-4-4V58.3a4,4,0,0,1,4-4h76.3a4,4,0,0,1,4,4v50.5A3.93,3.93,0,0,1,122.7,112.7Z"/><g id="_Group_" data-name="&lt;Group&gt;"><g id="_Group_2" data-name="&lt;Group&gt;"><circle id="_Path_3" data-name="&lt;Path&gt;" class="cls-3" cx="84.5" cy="83.5" r="13.4"/></g><g id="_Group_3" data-name="&lt;Group&gt;"><circle id="_Path_4" data-name="&lt;Path&gt;" class="cls-4" cx="84.5" cy="83.5" r="13.4"/><polygon id="_Path_5" data-name="&lt;Path&gt;" class="cls-5" points="81.2 77.4 91.7 83.5 81.2 89.6 81.2 77.4"/></g></g><line id="_Path_6" data-name="&lt;Path&gt;" class="cls-4" x1="73" y1="117" x2="59" y2="117"/><line id="_Path_7" data-name="&lt;Path&gt;" class="cls-4" x1="55" y1="117" x2="50" y2="117"/><line id="_Path_8" data-name="&lt;Path&gt;" class="cls-4" x1="120" y1="50" x2="99" y2="50"/><line id="_Path_9" data-name="&lt;Path&gt;" class="cls-4" x1="95" y1="50" x2="92" y2="50"/></svg>